<svg width="284" height="379" viewBox="0 0 284 379" fill="none" xmlns="http://www.w3.org/2000/svg">
<path d="M317.72 141.385C287.492 148.129 259.332 154.678 239.661 157.282C215.905 158.847 195.009 158.264 178.834 154.159C150.57 148.84 121.579 137.315 92.2619 123.027L69.6093 133.456C113.07 152.426 152.961 164.257 190.08 170.474C181.584 176.307 175.197 181.529 175.195 184.917C175.072 187.92 177.069 189.16 180.262 189.392C190.8 178.08 203.438 175.18 216.436 173.798C242.375 177.166 267.93 173.117 293.224 164.318L324.834 159.66C343.01 159.121 360.632 166.281 377.944 177.963C361.59 159.917 337.046 155.071 317.727 141.378L317.72 141.385Z" fill="#52217D"/>
<path d="M232.991 199.15C231.353 196.207 226.427 167.973 223.298 161.877C213.84 153.785 205.34 145.461 193.496 141.642C181.648 137.82 167.103 139.554 159.124 149.106C151.255 158.525 152.018 173.012 158.084 183.68C164.15 194.348 174.491 201.863 185.041 208.13C195.592 214.398 206.772 219.831 216.052 227.859C218.254 229.766 220.39 231.878 221.566 234.541C222.742 237.204 222.784 240.542 220.998 242.842C219.127 245.248 215.7 245.975 212.707 245.422C209.713 244.869 207.038 243.251 204.436 241.669C182.178 228.099 159.92 214.53 137.666 200.962C126.96 194.433 114.625 187.645 102.535 190.985C95.6681 192.884 89.8181 198.158 87.2238 204.794C84.6295 211.431 85.3501 219.273 89.1096 225.326C93.2424 231.983 100.39 236.038 106.164 241.334C111.937 246.631 116.625 254.832 113.623 262.066C111.972 266.046 108.341 268.8 105.791 272.271C103.241 275.741 101.993 281.089 105.121 284.055C107.87 286.661 112.628 285.784 115.4 283.194C118.171 280.609 119.447 276.844 120.624 273.238C122.516 267.446 124.418 261.597 124.98 255.533C125.538 249.467 124.645 243.076 121.306 237.983C117.872 232.737 112.245 229.362 108.054 224.702C103.857 220.04 101.271 212.626 105.074 207.641C107.665 204.247 112.478 203.199 116.68 203.971C120.882 204.743 124.638 207.007 128.281 209.235C149.446 222.151 170.603 235.069 191.768 247.985C197.302 251.365 202.932 254.781 209.189 256.48C215.447 258.18 222.53 257.955 227.944 254.383C236.215 248.922 238.176 236.895 234.398 227.735C230.62 218.576 222.398 211.963 213.708 207.201C205.019 202.438 195.588 199.112 187.012 194.15C178.436 189.189 170.48 182.141 167.342 172.745C164.204 163.348 167.324 151.42 176.166 146.946C182.833 143.574 191.111 145.062 197.585 148.785C204.065 152.506 211.468 160.012 216.594 165.446C220.571 169.663 223.506 197.659 228.649 200.483C234.221 203.527 235.428 203.53 232.991 199.15Z" fill="#17052F"/>
<path d="M170.448 152.654L153.543 148.156L153.678 162.656L171.301 166.457L170.448 152.654Z" fill="#52217D" stroke="#52217D"/>
</svg>
