<svg width="253" height="379" viewBox="0 0 253 379" fill="none" xmlns="http://www.w3.org/2000/svg">
<path d="M-64.7501 141.385C-34.5224 148.129 -6.36265 154.678 13.3081 157.282C37.0648 158.847 57.9605 158.264 74.1357 154.159C102.4 148.84 131.391 137.315 160.707 123.027L183.36 133.456C139.899 152.426 100.008 164.257 62.8896 170.474C71.3859 176.307 77.7726 181.529 77.7741 184.917C77.8971 187.92 75.9003 189.16 72.7073 189.392C62.1696 178.08 49.5309 175.18 36.5333 173.798C10.5949 177.166 -14.9602 173.117 -40.2544 164.318L-71.8651 159.66C-90.0408 159.121 -107.662 166.281 -124.975 177.963C-108.621 159.917 -84.0766 155.071 -64.7573 141.378L-64.7501 141.385Z" fill="#52217D"/>
<path d="M19.9782 199.15C21.6162 196.207 26.5428 167.973 29.6712 161.877C39.1294 153.785 47.6297 145.461 59.4735 141.642C71.3217 137.82 85.8665 139.554 93.8453 149.106C101.714 158.525 100.951 173.012 94.8857 183.68C88.8199 194.348 78.4787 201.863 67.9283 208.13C57.3779 214.398 46.1975 219.831 36.9173 227.859C34.7154 229.766 32.5791 231.878 31.4034 234.541C30.2277 237.204 30.1858 240.542 31.9716 242.842C33.8423 245.248 37.2692 245.975 40.2626 245.422C43.256 244.869 45.9311 243.251 48.5331 241.669C70.7915 228.099 93.0499 214.53 115.304 200.962C126.01 194.433 138.345 187.645 150.435 190.985C157.301 192.884 163.151 198.158 165.746 204.794C168.34 211.431 167.619 219.273 163.86 225.326C159.727 231.983 152.579 236.038 146.806 241.334C141.032 246.631 136.344 254.832 139.346 262.066C140.998 266.046 144.628 268.8 147.179 272.271C149.729 275.741 150.976 281.089 147.848 284.055C145.099 286.661 140.341 285.784 137.569 283.194C134.799 280.609 133.522 276.844 132.346 273.238C130.454 267.446 128.551 261.597 127.989 255.533C127.432 249.467 128.325 243.076 131.663 237.983C135.097 232.737 140.724 229.362 144.916 224.702C149.112 220.04 151.699 212.626 147.896 207.641C145.304 204.247 140.491 203.199 136.289 203.971C132.087 204.743 128.332 207.007 124.688 209.235C103.524 222.151 82.366 235.069 61.2013 247.985C55.6676 251.365 50.0379 254.781 43.7803 256.48C37.5227 258.18 30.4398 257.955 25.025 254.383C16.7542 248.922 14.7929 236.895 18.571 227.735C22.3491 218.576 30.5714 211.963 39.2611 207.201C47.9509 202.438 57.3811 199.112 65.9575 194.15C74.5339 189.189 82.4891 182.141 85.6275 172.745C88.7658 163.348 85.6451 151.42 76.8032 146.946C70.1368 143.574 61.8583 145.062 55.3846 148.785C48.904 152.506 41.5013 160.012 36.3755 165.446C32.3983 169.663 29.4638 197.659 24.3208 200.483C18.7481 203.527 17.541 203.53 19.9782 199.15Z" fill="#17052F"/>
<path d="M82.5215 152.654L99.4262 148.156L99.291 162.656L81.6685 166.457L82.5215 152.654Z" fill="#52217D" stroke="#52217D"/>
</svg>
