<svg width="362" height="341" viewBox="0 0 362 341" fill="none" xmlns="http://www.w3.org/2000/svg">
<path d="M285.288 39.8965C285.774 35.6167 283.099 30.9802 283.521 26.6031C289.908 28.2566 296.02 28.7916 302.115 25.7115C301.353 37.2865 300.624 49.1209 301.191 60.777C301.321 63.4195 301.791 72.0926 302.294 73.8435C302.747 75.3998 306.703 79.0312 308.259 77.9613L310.091 70.9092C313.901 69.288 319.818 82.0628 322.493 79.7769C322.914 79.4203 320.92 70.3743 320.483 68.9477C319.818 66.7753 317.159 63.1763 317.176 61.5713C317.208 57.9075 325.67 60.4365 326.059 56.3026L324.276 0C330.761 1.686 336.451 3.11261 342.887 0C343.146 6.77642 338.785 11.0238 346.891 14.1689C343.179 5.65781 350.749 6.45217 356.699 8.80285C357.98 9.32161 360.752 12.2721 361.514 11.5101C363.265 9.77551 354.964 5.93342 354.429 4.86346C353.392 2.78838 359.957 3.22614 360.622 1.7671C363.005 1.7671 370.835 -0.518769 372.165 0.405288C373.494 1.32934 371.808 3.84217 376.574 1.7671C376.428 5.05804 378.374 9.04606 380.124 11.7858C380.773 12.7909 382.605 12.564 382.783 12.4019C383.14 12.0614 381.859 5.57682 381.47 4.40959C380.886 2.67495 379.038 1.91296 379.233 0H395.639C399.659 0 407.716 0.988946 412.045 1.7671C413.682 2.05891 415.806 3.42066 418.254 2.65871C418.383 2.82083 421.155 1.88052 419.842 5.56054C418.529 9.24056 415.254 9.51616 414.914 9.92144C414.638 10.2457 411.283 17.0545 411.185 17.4922C410.764 19.4214 411.364 21.9018 411.153 23.9607C417.702 25.4197 423.587 19.0809 425.711 13.2448C426.538 10.959 425.597 5.94967 428.888 6.22527V93.9944C426.635 94.3672 424.495 96.7504 423.068 98.3715C421.496 100.171 422.436 102.441 419.129 102.424C418.805 105.926 426.91 104.321 428.888 104.629V178.213C414.022 178.846 421.139 170.594 421.82 161.84C421.998 159.521 420.993 145.434 420.004 144.51C419.81 144.331 418.075 144.623 417.362 144.51C418.48 148.708 415.838 152.988 415.66 156.571C415.579 158.046 416.324 159.732 416.47 161.353C413.844 160.818 414.914 162.666 414.46 164.174C413.115 168.535 412.353 174.387 406.711 172.88C408.997 155.55 412.061 141.948 405.155 125.185C404.62 123.872 405.69 122.77 403.161 123.24C403.242 133.324 405.09 143.585 402.95 153.62C402.496 155.744 397.698 166.346 396.044 167.157C394.958 167.692 391.894 166.379 390.905 167.757C390.305 168.6 390.321 172.637 389.332 174.598C389.073 175.101 384.501 180.726 384.145 180.937C380.903 182.898 373.17 181.537 372.262 177.597C371.711 175.23 377.158 155.598 375.666 154.285C375.488 154.123 373.494 154.577 372.343 154.042C368.695 152.372 363.67 147.8 358.79 145.871C353.911 143.942 348.804 144.493 345.61 140.408C344.897 139.516 343.989 134.588 342.822 138.722C340.228 157.009 340.098 175.668 340.196 194.165C335.527 193.841 331.198 195.381 326.902 196.824C326.724 191.961 327.146 187.016 326.902 182.153C326.838 180.856 326.027 179.591 326.011 179.089C325.816 174.096 326.189 169.021 326.011 164.012C325.784 157.203 326.189 150.394 325.119 143.618C322.007 144.623 308.243 144.412 307.546 147.687C307.287 148.87 308.908 151.659 308.276 153.377C307.4 153.491 306.152 155.323 304.968 155.841C302.099 157.106 296.863 157.463 293.831 156.749C290.443 155.939 289.811 152.145 285.223 156.49C290.005 164.758 300.3 164.515 308.276 161.353C308.486 166.833 307.011 171.745 307.4 177.305C307.935 184.909 312.247 183.709 312.782 188.345C313.723 196.565 306.703 198.429 299.862 197.7C296.571 197.343 293.361 195.527 290.022 195.138C287.185 194.798 275.723 194.49 274.151 195.916C272.578 197.343 272.659 201.38 268.655 201.979C264.91 202.547 255.653 196.63 250.125 196.046C236.005 194.538 220.458 195.657 205.982 194.101C197.195 193.16 198.33 193.485 189.965 194.182C175.553 195.365 157.04 192.22 143.163 195.252C133.112 197.456 130.242 211.236 131.004 219.893C131.944 230.463 141.947 236.234 130.923 245.961C128.54 248.069 124.39 250.598 121.245 249.657C111.356 246.723 112.928 229.701 112.393 221.66C111.939 214.576 111.096 207.507 111.518 200.374L85.3852 198.559C80.0031 199.353 87.59 209.226 88.2709 212.533C88.9031 215.629 88.4816 220.104 88.4654 223.411C88.433 231.792 88.7734 243.27 78.1712 244.583C75.1396 244.956 69.4819 245.556 67.6662 242.881C65.1696 239.201 63.4999 225.843 64.5212 221.644C64.586 221.352 66.1261 219.926 66.499 218.775C68.3471 212.955 67.4068 202.758 61.3113 199.596C55.2159 196.435 51.5683 200.018 51.2279 189.74C50.8874 179.462 58.5068 164.709 60.7277 154.48C62.4137 146.682 61.976 137.798 63.8727 130.146C65.429 123.872 69.3522 117.144 69.6278 110.109C69.8223 105.034 64.894 94.3511 68.4443 91.2871C73.3564 87.0397 74.2642 94.4807 78.2684 94.9022C80.3273 95.113 89.2922 91.6275 93.3288 91.3519C97.8356 91.0439 104.353 92.7948 107.465 92.2274C111.113 91.5627 112.474 84.2675 117.711 89.9902C119.543 92.0004 119.121 98.6796 118.554 101.354C118.424 102.003 117.095 102.052 116.868 102.651C114.566 109.006 117.387 111.73 117.711 117.452C117.986 122.121 116.446 126.126 116.803 130.778C117.046 133.988 120.775 148.806 123.628 149.665C126.254 150.459 135.414 151.416 138.526 151.61C167.415 153.345 183.675 143.115 213.407 156.506C221.301 160.056 223.49 163.817 229.115 167.611C230.655 168.648 242.603 171.631 244.727 171.68C248.764 171.761 253.481 169.573 257.745 170.237C256.74 164.904 261.765 160.948 265.818 158.37C267.844 157.09 275.091 154.642 275.464 154.269C277.62 152.129 272.092 152.469 271.541 152.567C267.715 153.247 265.137 156.717 261.295 156.944C260.954 156.62 263.986 149.178 264.505 148.189C265.413 146.471 270 140.894 270.081 140.424C270.26 139.338 268.25 137.96 268.396 136.55C268.606 136.323 267.942 134.199 269.287 133.891C271.622 138.365 272.059 143.245 278.155 142.759L275.496 139.225L288.789 140.1C289.162 138.041 287.849 138.106 286.536 137.49C283.861 136.209 275.075 135.188 274.604 134.783C273.064 133.437 278.252 131.978 277.263 130.357C279.549 125.639 288.092 127.601 289.308 125.964C289.649 125.493 288.806 116.415 288.789 114.389C288.757 109.671 288.806 104.921 288.789 100.203C282.208 99.5063 275.626 100.819 269.287 101.095C261.327 101.435 253.303 101.338 245.359 101.971L248.909 97.5447C255.345 96.9287 261.279 91.0115 267.504 89.1148C270.714 88.1421 273.68 90.1685 272.837 86.0183C274.07 85.4996 275.496 86.91 275.934 86.91H288.789C289.6 83.3758 280.635 84.2188 279.922 83.3434C277.798 80.7658 285.742 78.2368 286.747 76.8912C288.741 74.2163 286.374 59.399 286.131 54.9895C287.46 54.8598 287.46 52.4605 286.131 52.3308C286.066 50.5152 286.455 42.1176 286.131 41.6961L285.239 39.929L285.288 39.8965ZM379.265 75.3511C379.362 71.9305 377.352 61.7983 377.612 60.7608C377.871 59.7232 379.719 59.6584 379.978 59.2369C381.194 57.3239 378.406 54.9408 378.293 52.7523C378.195 50.8879 379.346 49.0885 379.265 47.4187C379.168 45.2626 378.309 38.1132 377.531 36.7353C376.185 34.3522 371.711 33.1688 371.516 30.4453C371.289 27.3975 375.845 26.3924 375.699 23.0366C374.418 21.6911 371.046 28.4351 366.815 27.1057C365.907 26.8301 363.637 25.1441 363.297 24.3497C362.811 23.2149 367.739 21.0912 365.518 18.6108C360.411 25.9384 355.029 18.773 348.901 19.6646C345.546 20.1509 344.168 22.761 341.331 24.1065C342.141 33.2012 339.547 43.4955 340.244 52.2984C340.715 58.167 341.493 55.265 344.719 58.021C348.788 61.5065 351.949 66.9212 353.959 71.8333C354.689 73.6327 355.872 80.3605 356.213 80.6848C356.375 80.8307 358.126 80.6361 358.806 80.6361C359.974 74.9945 363.151 70.05 365.064 64.7164C365.631 63.1439 364.886 58.7344 367.723 59.399C367.253 62.771 368.225 65.8999 368.614 69.1422C369.457 76.178 370.235 83.3111 370.398 90.4117C376.525 87.9151 379.087 81.5277 379.265 75.3511ZM402.318 46.0893C408.592 45.6354 412.304 41.307 412.093 35.0493C412.012 32.6338 409.743 26.1006 408.105 31.0289C407.408 33.1202 405.382 44.6303 404.847 45.1167C404.198 45.7165 402.01 44.3871 402.318 46.0893ZM402.042 61.7983C402.723 61.2958 408.673 50.0611 408.997 48.7966C410.521 42.8956 403.858 46.8027 403.307 48.4725C402.415 51.1474 405.074 54.6004 402.755 56.7403C400 59.2855 392.948 56.562 394.326 62.9494C394.812 63.4519 400.956 62.5927 402.042 61.7983ZM411.169 71.8008C412.693 70.3418 403.047 64.149 402.318 64.7164C402.172 64.8298 401.28 67.5858 401.783 68.2829C402.172 68.8341 410.813 72.1412 411.169 71.8008ZM405.609 101.695C406.808 100.69 408.916 95.032 409.191 93.3298C409.645 90.5089 409.451 74.3947 405.43 74.4757C404.944 74.4757 400.713 81.3657 400.275 82.6302C399.173 85.7266 398.476 91.1899 398.735 94.4808C399.043 98.3878 401.102 105.505 405.625 101.711L405.609 101.695ZM318.991 109.947C323.595 111.017 329.399 105.586 325.216 102.392C323.352 100.965 303.817 99.3928 303.039 100.187C303.866 103.494 303.347 119.122 304.806 120.16C305.552 120.679 307.238 120.516 308.292 121.1C309.394 121.732 314.436 126.093 315.457 125.007C317.257 123.11 306.071 113.821 307.481 112.605C310.869 110.968 323.125 119.917 324.309 118.798L318.991 109.947ZM99.1325 111.714C97.7707 113.189 100.737 117.112 104.077 114.437C108.114 111.227 101.013 106.737 101.775 112.605C101.467 112.897 99.5053 111.308 99.1325 111.714ZM83.7965 111.146C82.9535 110.708 82.2564 110.773 81.3972 110.838C79.8734 118.052 90.1352 115.215 86.0337 112.638C85.369 112.232 83.9424 111.227 83.8127 111.146H83.7965ZM342.919 135.626C341.963 131.216 339.434 129.514 334.943 130.308V137.409C337.942 137.992 340.196 136.339 342.919 135.626ZM290.605 172.88C290.216 170.383 291.189 167.822 289.957 165.098C289.211 163.445 281.851 156.474 280.019 160.089L269.336 169.783C273.826 172.312 277.668 172.474 282.029 175.717C284.412 177.484 288.206 182.947 289.438 183.385C294.236 185.087 291.87 181.018 291.497 178.229C291.237 176.365 290.897 174.695 290.605 172.912V172.88Z" fill="#17052F"/>
<path d="M325.962 178.634C325.979 179.137 326.789 180.385 326.854 181.698C327.097 186.562 326.676 191.506 326.854 196.37C331.15 194.927 335.478 193.403 340.147 193.711C340.05 175.214 340.18 156.554 342.773 138.268C343.941 134.134 344.849 139.046 345.562 139.954C348.772 144.039 354.057 143.569 358.742 145.417C363.427 147.265 368.647 151.918 372.294 153.588C373.445 154.106 375.423 153.669 375.618 153.831C377.093 155.16 371.662 174.792 372.213 177.143C373.121 181.082 380.854 182.444 384.096 180.483C384.453 180.272 389.025 174.663 389.284 174.144C390.273 172.182 390.24 168.146 390.856 167.303C391.845 165.925 394.909 167.238 395.995 166.703C397.649 165.892 402.448 155.306 402.901 153.166C405.041 143.147 403.193 132.885 403.112 122.786C405.641 122.332 404.555 123.418 405.106 124.731C412.012 141.494 408.932 155.095 406.663 172.425C412.304 173.933 413.066 168.081 414.412 163.72C414.882 162.212 413.796 160.364 416.422 160.899C419.388 194.522 419.826 229.247 420.896 263.259C421.464 281.107 421.285 299.07 421.739 316.935C415.838 317.162 416.179 319.967 412.904 322.593C412.369 323.03 411.542 323.614 411.104 323.144C410.245 322.236 407.392 301.55 405.982 298.567C404.263 294.579 401.848 292.31 399.108 289.505C398.492 288.873 394.018 282.469 395.331 287.949C397.454 296.881 398.832 305.911 398.719 315.168H392.51L393.385 310.742C386.787 312.833 380.546 312.963 373.883 310.742C374.418 310.11 374.013 307.662 376.542 308.083C378.925 310.677 389.041 307.856 392.413 307.127L390.289 282.372C389.43 280.961 381.438 278.189 379.492 276.779C378.422 276.001 378.244 273.245 375.65 273.52C375.861 269.451 380.432 273.634 379.93 270.57C379.119 265.642 377.433 267.83 375.067 266.079C371.403 263.356 370.171 255.509 370.495 251.181C370.641 249.252 380.27 223.427 381.535 221.319C381.956 220.622 383.399 220.557 383.626 219.714C384.372 217.04 382.605 209.809 383.999 207.88C385.296 206.064 391.083 208.528 390.711 204.395C384.048 204.962 387.258 203.908 386.236 200.455C385.75 198.818 384.502 197.845 384.453 196.013C384.372 193.5 386.285 189.707 385.393 186.659C381.697 186.562 382.978 191.101 382.362 193.808C380.984 199.726 378.925 195.997 375.131 195.592C372.91 195.348 369.376 195.235 367.204 195.494C364.027 195.883 355.548 199.677 361.919 200.828C364.707 201.331 380.4 202.546 381 204.978C380.838 209.793 378.568 230.349 374.143 231.727C368.193 233.575 370.446 226.637 366.345 227.415C366.004 227.48 362.47 232.813 362.357 233.235C361.644 235.634 365.356 233.916 366.831 234.937C369.133 236.526 366.118 252.024 367.642 255.834C363.8 253.613 362.519 247.906 357.023 248.749C355.921 254.456 360.979 259.838 364.951 263.437C366.118 264.491 367.982 264.393 368.55 265.334C368.955 265.998 371.046 278.838 371.192 280.653C368.404 280.151 369.684 282.031 369.409 283.701C368.777 287.56 368.809 290.591 368.436 294.287C368.225 296.379 366.831 299.54 366.766 301.048C362.341 299.589 359.455 296.087 355.127 293.623C351.025 291.288 345.578 289.213 341.055 287.754C341.185 281.188 342.206 274.623 343.714 268.252C336.905 271.154 331.085 270.165 324.211 268.252C326.319 282.534 325.719 296.897 325.946 311.277C326.092 320.891 326.627 330.358 325.978 340.052C322.412 339.42 316.576 339.42 314.452 336.502C314.42 335.562 313.561 333.714 313.528 331.671C313.317 318.815 313.204 305.798 314.436 293.055C312.896 293.785 311.712 295.228 310.01 295.714V292.164C310.318 292.05 314.404 288.03 314.468 287.3C310.918 274.412 311.096 261.021 310.01 247.841H319.77C319.656 247.112 319.964 245.458 319.77 245.199C319.429 244.777 310.821 243.772 309.135 243.399C308.162 243.189 306.881 243.529 305.439 243.156C301.353 242.102 298.841 238.795 294.95 238.082C294.48 235.018 286.212 231.111 283.424 229.214C283.197 229.052 282.97 226.783 279.468 225.632C276.745 224.74 274.572 225.243 272.773 224.772C258.377 221.011 243.268 217.218 228.094 218.661C202.561 221.076 180.368 227.155 153.554 224.756C145.675 224.059 138.737 219.958 130.939 219.455C130.177 210.798 133.047 197.018 143.098 194.813C156.975 191.782 175.488 194.943 189.9 193.744C198.265 193.046 197.13 192.722 205.917 193.662C220.394 195.219 235.94 194.116 250.061 195.608C255.589 196.191 264.862 202.109 268.59 201.541C272.594 200.941 272.578 196.84 274.086 195.478C275.594 194.116 287.12 194.376 289.957 194.7C293.296 195.089 296.49 196.921 299.797 197.261C306.655 197.991 313.658 196.143 312.718 187.907C312.183 183.271 307.87 184.47 307.335 176.867L325.946 178.634H325.962ZM341.914 261.978C341.785 261.848 339.547 262.124 338.38 261.54C337.213 260.957 327.843 247.436 325.071 250.451C326.611 255.38 320.256 260.357 325.476 263.777C326.903 264.718 332.56 266.468 334.327 266.436C336.419 266.404 344.524 264.523 341.914 261.962V261.978Z" fill="#3A0F69"/>
<path d="M51.4063 189.562C51.7467 199.84 55.4105 196.273 61.4898 199.418C67.569 202.563 68.5417 212.793 66.6774 218.596C66.3046 219.747 64.7645 221.174 64.6996 221.466C52.152 220.655 39.9935 222.844 27.8998 225.892H10.6347C10.2942 225.648 8.91625 225.729 8.4137 225.065L0 217.494C11.7208 209.696 35.6812 207.67 30.137 187.778C36.8971 190.68 44.2409 189.237 51.4063 189.545V189.562Z" fill="#3A0F69"/>
<path d="M88.4816 223.379C88.4816 220.055 88.9193 215.597 88.2871 212.501C87.6062 209.194 80.0193 199.305 85.4015 198.526L111.534 200.342C111.113 207.475 111.956 214.543 112.41 221.628L88.4816 223.395V223.379Z" fill="#3A0F69"/>
</svg>
