<svg width="380" height="400" viewBox="0 0 380 400" fill="none" xmlns="http://www.w3.org/2000/svg">
<g clip-path="url(#clip0_655_13)">
<path d="M68.4606 200.187C68.2865 200.498 68.1254 200.812 68.0442 201.127C66.8639 205.731 80.5092 216.344 85.2227 219.355C81.4519 218.407 77.738 217.353 74.0939 216.196C68.3086 215.784 71.1837 219.598 72.9717 221.249C78.7163 226.553 87.1656 230.256 95.1808 233.465C95.228 234.573 81.9302 232.446 80.851 231.889C75.91 231.212 75.8008 233.98 77.0924 236.484C81.5314 245.16 95.1613 256.572 104.142 262.46C104.509 262.701 105.013 262.839 105.53 262.979C106.047 263.119 106.626 263.206 107.194 263.273C108.559 263.77 110.358 263.891 112.606 263.622C125.406 266.472 137.866 262.421 147.996 254.878C152.799 253.642 154.732 252.974 154.595 249.064C155.742 247.392 157.55 245.853 159.997 244.448C162.279 239.551 167.793 237.459 173.79 238.755C176.287 241.33 178.239 240.932 179.593 237.481C180.093 236.973 180.996 237.009 181.675 237.112C185.846 238.429 188.313 238.441 191.524 235.243L206.092 223.548C208.247 222.15 210.811 220.902 213.576 220.751C213.708 219.831 213.81 218.853 213.88 217.818C213.961 217.31 214.391 215.888 213.717 215.729C212.869 217.367 210.771 218.066 209.369 219.092C208.986 219.373 209.259 219.819 208.619 220.256C204.756 222.893 201.928 224.263 199.142 220.785C197.026 218.138 203.253 215.321 202.076 212.288C193.764 213.365 185.286 214.704 176.62 216.305C171.607 216.386 166.77 216.964 162.123 218.027C158.923 219.356 155.67 220.759 152.366 222.235C150.183 224.197 150.004 224.264 151.843 222.444L151.357 221.575C151.507 221.389 151.613 221.227 151.694 221.019C150.837 219.88 150.171 218.654 149.679 217.349C148.647 217.646 147.82 217.158 147.418 216.575C147.262 216.347 147.188 216.082 147.033 215.854L145.585 216.327C142.35 216.106 139.085 216.041 135.794 216.141C133.344 216.731 130.237 218.087 128.581 218.383C128.095 218.47 127.58 217.782 126.352 217.859C125.235 217.933 122.859 218.834 122.686 218.806C122.39 218.761 122.342 217.908 122.103 217.757C118.08 218.459 114.187 219.767 110.43 221.687L108.147 222.146C112.723 219.422 117.085 216.638 121.243 213.768C112.573 211.349 103.247 209.826 94.6672 207.258C87.8106 205.2 75.844 199.091 68.4314 200.175L68.4606 200.187Z" fill="#E96659"/>
<path d="M70.7008 200.042C51.3545 202.815 48.1038 221.045 42.7438 232.171C41.6135 234.531 40.237 236.85 38.9785 239.18C38.2406 240.551 38.9726 241.418 36.5757 242.876C36.8491 243.557 38.1086 246.147 38.575 246.369C38.8309 246.491 39.8529 246.199 40.3721 246.394C41.8845 246.956 41.5454 248.822 44.5539 247.269C44.9678 248.045 42.8191 248.034 42.2477 248.625C42.0015 248.878 42.1531 250.865 42.3186 251.322C43.0885 253.521 47.1963 261.573 48.683 263.243C49.4431 264.1 50.5629 263.276 51.0854 264.065C52.0312 265.479 50.465 266.329 50.8271 267.155C51.0597 267.695 53.7811 271.006 54.3693 271.478C55.8079 272.617 60.8511 271.302 63.2127 271.69C63.9053 272.525 61.9493 272.645 61.0159 273.376C60.3036 273.934 58.9401 275.962 59.177 276.679C59.5745 277.886 66.6427 284.82 68.1554 285.615C69.2263 285.204 69.5926 284.271 69.2544 282.818C68.914 279.532 68.504 276.326 68.0117 273.196C70.9183 275.867 73.9788 278.426 77.1874 280.884L78.2279 281.025C78.4227 281.054 78.7782 281.131 78.9459 281.193C80.1564 282.935 81.177 284.763 82.0333 286.682C83.0885 288.427 84.6494 287.231 85.9322 285.914C88.1898 282.534 90.9326 279.516 94.1699 276.857C97.1892 276.817 99.6696 273.896 101.027 271.94L104.682 265.838C105.925 265.015 107.395 264.51 109.097 264.314L109.534 263.41C100.939 257.86 93.1355 251.399 86.9393 244.227C84.8759 241.834 81.383 237.771 80.0648 235.218C79.6051 234.336 79.5998 232.728 81.3014 232.447C82.0136 232.331 89.6703 234.251 91.5807 234.404C92.8097 234.499 98.9323 234.68 99.4165 233.905C97.533 231.639 93.2338 230.984 90.3606 229.617C86.2661 227.664 76.8366 221.982 74.658 218.973C74.3441 218.532 73.5123 216.743 74.8573 216.656C75.528 216.609 84.5809 219.715 86.6871 220.066C87.7705 220.246 88.9776 220.573 90.1461 220.072C87.4357 217.538 83.822 215.771 80.9133 213.35C76.1618 209.389 72.8701 205.283 70.6984 200.059L70.7008 200.042Z" fill="#E34E69"/>
<path d="M290.314 399.672C290.493 399.029 289.932 398.325 288.224 397.584C265.366 392.157 257.806 359.133 268.351 340.509L267.599 339.028C273.128 325.09 277.476 310.241 278.945 295.38C279.422 291.532 279.231 287.598 278.359 283.579L276.902 283.13C276.496 276.064 273.738 272.215 268.614 271.572C269.283 274.765 270.525 277.897 272.34 280.981C271.242 285.413 271.027 289.443 271.695 293.062C276.222 296.182 275.445 304.401 268.996 301.779C269.51 307.546 264.996 308.031 261.675 304.28C260.983 308.845 259.8 311.504 254.964 308.893C253.853 310.46 252.169 310.97 250.402 310.29C244.86 316.615 243.176 303.381 246.544 300.128C249.47 298.719 251.632 296.825 253.029 294.421L252.336 292.977L256.875 285.449C258.953 280.908 260.302 277.193 257.03 272.737L255.382 272.373C252.515 268.585 248.383 261.677 250.425 257.003C249.052 251.952 249.924 248.164 253.029 245.638C252.324 244.922 252.659 244.072 254.044 243.101C262.595 240.6 263.359 237.152 256.361 232.757C252.635 234.129 249.924 229.721 248.73 226.504C246.317 223.323 236.405 234.287 235.246 237.14L233.694 236.836L233.491 238.487C228.666 240.151 224.307 242.725 220.414 246.209L219.685 245.638C218.825 249.511 210.358 254.501 213.021 248.346C206.632 246.331 205.043 247.338 205.294 254.331C203.276 253.045 202.452 252.947 200.362 253.761C199.263 256.638 198.917 255.315 198.308 252.96C197.794 250.968 198.2 248.832 199.024 246.986C197.472 245.602 203.013 239.459 204.16 238.864C207.002 237.407 214.681 237.103 217.977 237.067L220.366 235.1C221.13 232.198 222.241 230.729 223.686 230.717C223.017 228.884 223.937 227.05 226.457 225.205C233.539 221.478 233.216 219.572 225.477 219.511C221.321 214.46 217.249 215.529 213.272 222.716L212.364 222.583C212.842 223.724 212.388 229.454 211.743 230.061C210.119 231.603 197.866 230.79 201.138 224.986C201.902 223.481 202.75 221.781 203.694 219.863C202.822 218.515 199.108 220.336 197.782 221.271C189.721 223.578 184.192 223.772 185.565 213.064C188.252 209.81 191.19 206.884 194.355 204.274C192.145 203.254 189.625 202.307 187.106 201.663C181.385 196.334 174.196 194.257 166.588 192.885C160.521 192.303 154.669 191.137 149.032 189.365C148.853 189.535 148.662 189.68 148.459 189.717C146.512 190.044 135.501 191.781 135.167 191.101C134.88 190.518 135.227 189.862 135.704 189.377C135.059 188.248 135.418 187.859 136.373 188.697C136.564 185.224 135.979 182.165 134.379 179.215C134.116 178.863 134.116 178.413 134.379 177.855C131.883 177.636 129.279 176.313 126.556 173.897L122.376 171.76C121.648 173.581 114.554 172.95 112.966 172.282L111.007 170.242C108.559 170.133 103.053 168.81 107.042 166.345L105.06 165.507C102.743 165.799 96.2936 165.823 99.0404 162.254C99.554 161.586 112.727 159.388 114.375 159.57C109.622 156.778 109.12 155.017 112.882 154.301C114.685 151.751 116.584 151.764 119.498 152.164C118.555 149.433 119.355 147.709 121.911 146.494C120.681 145.305 119.582 144.042 119.785 142.196C116.011 140.994 114.47 139.246 115.187 136.964C105.274 133.236 114.733 129.655 120.227 133.479C129.745 138.809 139.789 142.913 150.059 146.81C158.085 150.125 164.916 155.321 170.577 162.387C174.47 166.831 179.259 167.984 184.681 168.907C187.822 169.599 190.521 171.881 187.571 174.601C188.085 175.524 204.398 184.132 205.844 184.581C207.002 184.945 213.391 173.763 214.239 171.748C223.244 159.036 230.875 163.638 222.026 176.981C221.727 180.198 224.928 174.674 224.785 174.212C226.827 174.431 228.893 173.945 230.959 172.78C232.607 173.132 233.933 172.683 234.936 171.432C237.515 172.258 239.988 171.493 242.364 169.15C243.809 171.214 245.863 171.189 247.703 169.307C249.267 170.643 251.154 171.663 253.363 172.367C255.035 168.506 257.328 169.392 257.496 173.435C258.988 173.678 260.553 173.569 262.165 173.083C263.586 175.754 264.219 176.471 267.217 175.767C268.626 178.219 270.322 180.429 272.316 182.383C273.284 181.23 274.072 181.4 275.421 181.983C280.007 179.955 282.145 176.884 284.689 172.646C290.063 167.996 295.605 163.553 301.289 159.34C309.697 149.469 307.201 129.74 305.23 117.671C304.824 115.158 301.11 102.374 299.773 101.439C299.498 101.245 298.841 101.378 298.519 101.536C287.448 110.739 291.102 96.2303 294.757 90.0505C296.524 80.5198 296.596 70.7462 294.96 60.7177C296.894 43.4773 299.904 26.5041 303.988 9.78586C305.756 4.56519 312.575 3.3268 308.992 10.3201C309.506 12.5419 309.852 14.3266 309.064 16.5242L310.64 17.4469C314.725 17.3255 316.683 18.661 316.552 21.4777L322.893 19.1102C329.414 19.3287 335.947 18.9159 342.503 17.9082C345.023 17.6533 346.755 18.5396 346.898 21.247C349.776 17.4347 351.771 15.9414 356.62 16.9127L362.245 14.3145C367.547 12.4326 368.932 15.2372 366.389 22.7161C367.595 24.0759 381.329 10.915 382.929 9.00883C385.198 8.87527 387.563 9.04525 390.035 9.53089C395.278 5.85215 401.787 2.08841 407.913 0.0122872C408.271 -0.109124 408.737 0.546495 409 1.00786V8.46248L408.391 10.2108C407.197 10.6843 399.792 14.1324 399.792 15.1158C402.718 21.0892 400.306 25.035 396.46 29.4423C396.914 34.1773 397.332 39.8957 394.394 43.9873L395.529 49.3536C398.132 51.7333 399.374 54.38 399.231 57.3182C403.076 58.2288 406.325 60.4627 408.988 64.0322V89.7834C408.319 90.7426 407.221 91.5803 405.68 92.2845L402.909 97.5294C394.514 100.638 391.074 109.804 390.776 118.364L389.593 119.578C390.907 121.812 390.871 123.426 389.462 124.434C391.683 126.425 392.865 129.193 392.997 132.751C396.162 135.907 397.607 139.161 397.32 142.488C399.852 147.709 403.506 151.242 408.295 153.099L408.988 155.515V158.903L407.77 160.02C401.763 156.28 395.923 155.248 390.25 156.936L382.786 155.697C383.837 158.854 383.192 160.372 380.863 160.25L372.945 159.473C368.276 162.8 364.239 162.666 359.008 160.918C359.211 163.431 357.933 164.33 355.557 163.601C353.909 165.993 352.977 166.879 350.314 165.01C348.427 167.729 345.644 169.915 341.978 171.541C341.823 174.686 338.025 175.803 338.347 172.452C335.445 170.497 335.744 172.221 336.639 174.662L336.353 176.519C337.165 178.353 334.12 181.874 332.352 181.266L332.698 183.282C330.023 187.507 328.351 192.291 327.336 197.208C326.751 203.533 325.103 209.191 322.392 214.193C322.893 221.769 315.776 222.085 316.349 214.472L315.489 214.776C315.728 219.207 315.74 223.578 315.501 227.888L305.159 236.909C304.048 235.828 303.116 235.124 302.352 234.796C303.749 242.542 305.254 251.296 303.212 259.054C301.576 261.118 300.668 263.255 300.489 265.453L299.689 265.975C302.269 269.289 303.379 272.834 302.997 276.61L301.755 283.519C305.983 289.237 308.67 296.534 309.9 303.636L309.016 305.275L310.664 306.101L312.73 313.264C319.275 318.91 312.563 327.797 305.469 327.299C304.263 330.007 301.874 331.051 299.343 329.339C297.539 326.097 295.533 328.161 293.312 335.531L291.687 335.774C287.161 344.467 286.552 355.892 288.033 365.556C289.394 374.492 291.926 378.219 300.895 378.899C307.141 386.256 323.932 378.231 325.569 369.963L325.509 359.279C325.198 354.775 333.57 353.876 334.872 356.523C332.71 366.139 331.074 376.034 329.653 385.941C317.663 392.8 304.765 401.846 290.314 399.684V399.672Z" fill="#02002F"/>
</g>
<defs>
<clipPath id="clip0_655_13">
<rect width="409" height="400" fill="white" transform="matrix(-1 0 0 1 409 0)"/>
</clipPath>
</defs>
</svg>
