<svg width="358" height="400" viewBox="0 0 358 400" fill="none" xmlns="http://www.w3.org/2000/svg">
<g clip-path="url(#clip0_656_14)">
<path d="M289.539 200.187C289.713 200.498 289.875 200.812 289.956 201.127C291.136 205.731 277.491 216.344 272.777 219.355C276.548 218.407 280.262 217.353 283.906 216.196C289.691 215.784 286.816 219.598 285.028 221.249C279.284 226.553 270.834 230.256 262.819 233.465C262.772 234.573 276.07 232.446 277.149 231.889C282.09 231.212 282.199 233.98 280.907 236.484C276.468 245.16 262.839 256.572 253.858 262.46C253.491 262.701 252.987 262.839 252.47 262.979C251.953 263.119 251.374 263.206 250.805 263.273C249.441 263.77 247.642 263.891 245.394 263.622C232.594 266.472 220.134 262.421 210.004 254.878C205.201 253.642 203.268 252.974 203.405 249.064C202.258 247.392 200.45 245.853 198.003 244.448C195.721 239.551 190.207 237.459 184.21 238.755C181.713 241.33 179.76 240.932 178.407 237.481C177.907 236.973 177.004 237.009 176.325 237.112C172.154 238.429 169.687 238.441 166.475 235.243L151.908 223.548C149.753 222.15 147.188 220.902 144.424 220.751C144.292 219.831 144.19 218.853 144.119 217.818C144.039 217.31 143.608 215.888 144.283 215.729C145.131 217.367 147.229 218.066 148.63 219.092C149.014 219.373 148.741 219.819 149.381 220.256C153.244 222.893 156.072 224.263 158.858 220.785C160.973 218.138 154.747 215.321 155.924 212.288C164.236 213.365 172.714 214.704 181.38 216.305C186.392 216.386 191.23 216.964 195.876 218.027C199.077 219.356 202.33 220.759 205.634 222.235C207.816 224.197 207.996 224.264 206.157 222.444L206.643 221.575C206.493 221.389 206.387 221.227 206.305 221.019C207.163 219.88 207.829 218.654 208.321 217.349C209.353 217.646 210.18 217.158 210.582 216.575C210.738 216.347 210.811 216.082 210.967 215.854L212.414 216.327C215.65 216.106 218.915 216.041 222.206 216.141C224.656 216.731 227.763 218.087 229.419 218.383C229.905 218.47 230.42 217.782 231.648 217.859C232.765 217.933 235.14 218.834 235.314 218.806C235.61 218.761 235.657 217.908 235.896 217.757C239.92 218.459 243.812 219.767 247.57 221.687L249.853 222.146C245.277 219.422 240.915 216.638 236.757 213.768C245.427 211.349 254.753 209.826 263.333 207.258C270.189 205.2 282.156 199.091 289.569 200.175L289.539 200.187Z" fill="#E96659"/>
<path d="M287.299 200.042C306.645 202.815 309.896 221.045 315.256 232.171C316.387 234.531 317.763 236.85 319.022 239.18C319.759 240.551 319.027 241.418 321.424 242.876C321.151 243.557 319.891 246.147 319.425 246.369C319.169 246.491 318.147 246.199 317.628 246.394C316.116 246.956 316.455 248.822 313.446 247.269C313.032 248.045 315.181 248.034 315.752 248.625C315.998 248.878 315.847 250.865 315.681 251.322C314.911 253.521 310.804 261.573 309.317 263.243C308.557 264.1 307.437 263.276 306.915 264.065C305.969 265.479 307.535 266.329 307.173 267.155C306.94 267.695 304.219 271.006 303.631 271.478C302.192 272.617 297.149 271.302 294.787 271.69C294.095 272.525 296.051 272.645 296.984 273.376C297.696 273.934 299.06 275.962 298.823 276.679C298.426 277.886 291.357 284.82 289.845 285.615C288.774 285.204 288.407 284.271 288.746 282.818C289.086 279.532 289.496 276.326 289.988 273.196C287.082 275.867 284.021 278.426 280.813 280.884L279.772 281.025C279.577 281.054 279.222 281.131 279.054 281.193C277.844 282.935 276.823 284.763 275.967 286.682C274.912 288.427 273.351 287.231 272.068 285.914C269.81 282.534 267.067 279.516 263.83 276.857C260.811 276.817 258.33 273.896 256.973 271.94L253.318 265.838C252.075 265.015 250.605 264.51 248.903 264.314L248.466 263.41C257.061 257.86 264.864 251.399 271.061 244.227C273.124 241.834 276.617 237.771 277.935 235.218C278.395 234.336 278.4 232.728 276.699 232.447C275.986 232.331 268.33 234.251 266.419 234.404C265.19 234.499 259.068 234.68 258.584 233.905C260.467 231.639 264.766 230.984 267.639 229.617C271.734 227.664 281.163 221.982 283.342 218.973C283.656 218.532 284.488 216.743 283.143 216.656C282.472 216.609 273.419 219.715 271.313 220.066C270.23 220.246 269.022 220.573 267.854 220.072C270.564 217.538 274.178 215.771 277.087 213.35C281.838 209.389 285.13 205.283 287.302 200.059L287.299 200.042Z" fill="#E34E69"/>
<path d="M67.6861 399.672C67.5069 399.029 68.0682 398.325 69.776 397.584C92.6343 392.157 100.194 359.133 89.6486 340.509L90.401 339.028C84.8716 325.09 80.5244 310.241 79.0555 295.38C78.5778 291.532 78.7688 287.598 79.6407 283.579L81.0977 283.13C81.5037 276.064 84.2625 272.215 89.3859 271.572C88.7171 274.765 87.475 277.897 85.6598 280.981C86.7585 285.413 86.9734 289.443 86.3047 293.062C81.7784 296.182 82.5547 304.401 89.0037 301.779C88.4902 307.546 93.0045 308.031 96.3246 304.28C97.0172 308.845 98.1995 311.504 103.036 308.893C104.147 310.46 105.831 310.97 107.598 310.29C113.14 316.615 114.824 303.381 111.456 300.128C108.53 298.719 106.368 296.825 104.971 294.421L105.664 292.977L101.125 285.449C99.0475 280.908 97.698 277.193 100.97 272.737L102.618 272.373C105.485 268.585 109.617 261.677 107.575 257.003C108.948 251.952 108.076 248.164 104.971 245.638C105.676 244.922 105.341 244.072 103.956 243.101C95.405 240.6 94.6406 237.152 101.639 232.757C105.365 234.129 108.076 229.721 109.27 226.504C111.683 223.323 121.595 234.287 122.754 237.14L124.306 236.836L124.509 238.487C129.334 240.151 133.693 242.725 137.586 246.209L138.315 245.638C139.175 249.511 147.642 254.501 144.979 248.346C151.368 246.331 152.957 247.338 152.706 254.331C154.724 253.045 155.548 252.947 157.638 253.761C158.737 256.638 159.083 255.315 159.692 252.96C160.206 250.968 159.8 248.832 158.976 246.986C160.528 245.602 154.987 239.459 153.84 238.864C150.998 237.407 143.319 237.103 140.023 237.067L137.634 235.1C136.87 232.198 135.759 230.729 134.314 230.717C134.983 228.884 134.063 227.05 131.543 225.205C124.461 221.478 124.784 219.572 132.523 219.511C136.679 214.46 140.751 215.529 144.728 222.716L145.636 222.583C145.158 223.724 145.612 229.454 146.257 230.061C147.881 231.603 160.134 230.79 156.862 224.986C156.098 223.481 155.25 221.781 154.306 219.863C155.178 218.515 158.892 220.336 160.218 221.271C168.279 223.578 173.808 223.772 172.435 213.064C169.748 209.81 166.81 206.884 163.645 204.274C165.855 203.254 168.375 202.307 170.894 201.663C176.615 196.334 183.804 194.257 191.412 192.885C197.479 192.303 203.331 191.137 208.968 189.365C209.147 189.535 209.338 189.68 209.541 189.717C211.488 190.044 222.499 191.781 222.833 191.101C223.12 190.518 222.773 189.862 222.296 189.377C222.941 188.248 222.582 187.859 221.627 188.697C221.436 185.224 222.021 182.165 223.621 179.215C223.884 178.863 223.884 178.413 223.621 177.855C226.117 177.636 228.721 176.313 231.444 173.897L235.624 171.76C236.352 173.581 243.446 172.95 245.034 172.282L246.993 170.242C249.441 170.133 254.947 168.81 250.958 166.345L252.94 165.507C255.257 165.799 261.706 165.823 258.96 162.254C258.446 161.586 245.273 159.388 243.625 159.57C248.378 156.778 248.88 155.017 245.118 154.301C243.315 151.751 241.416 151.764 238.502 152.164C239.445 149.433 238.645 147.709 236.089 146.494C237.319 145.305 238.418 144.042 238.215 142.196C241.989 140.994 243.53 139.246 242.813 136.964C252.726 133.236 243.267 129.655 237.773 133.479C228.255 138.809 218.211 142.913 207.941 146.81C199.915 150.125 193.084 155.321 187.423 162.387C183.53 166.831 178.741 167.984 173.319 168.907C170.178 169.599 167.479 171.881 170.429 174.601C169.915 175.524 153.602 184.132 152.156 184.581C150.998 184.945 144.609 173.763 143.761 171.748C134.756 159.036 127.125 163.638 135.974 176.981C136.273 180.198 133.072 174.674 133.215 174.212C131.173 174.431 129.107 173.945 127.041 172.78C125.393 173.132 124.067 172.683 123.064 171.432C120.485 172.258 118.012 171.493 115.636 169.15C114.191 171.214 112.137 171.189 110.297 169.307C108.733 170.643 106.846 171.663 104.637 172.367C102.965 168.506 100.672 169.392 100.504 173.435C99.0116 173.678 97.4472 173.569 95.8349 173.083C94.4137 175.754 93.7808 176.471 90.7832 175.767C89.3739 178.219 87.6781 180.429 85.6836 182.383C84.7163 181.23 83.9281 181.4 82.5786 181.983C77.9926 179.955 75.8548 176.884 73.3111 172.646C67.9369 167.996 62.3955 163.553 56.7108 159.34C48.3031 149.469 50.7992 129.74 52.7697 117.671C53.1757 115.158 56.8899 102.374 58.2275 101.439C58.5022 101.245 59.159 101.378 59.4815 101.536C70.5523 110.739 66.8979 96.2303 63.2434 90.0505C61.4759 80.5198 61.4042 70.7462 63.0404 60.7177C61.1057 43.4773 58.0961 26.5041 54.0117 9.78586C52.2442 4.56519 45.425 3.3268 49.0078 10.3201C48.4942 12.5419 48.1479 14.3266 48.9361 16.5242L47.3597 17.4469C43.2753 17.3255 41.3167 18.661 41.4481 21.4777L35.1065 19.1102C28.5858 19.3287 22.0532 18.9159 15.4967 17.9082C12.9768 17.6533 11.2451 18.5396 11.1018 21.247C8.22361 17.4347 6.22919 15.9414 1.38047 16.9127L-4.24452 14.3145C-9.54705 12.4326 -10.9324 15.2372 -8.38862 22.7161C-9.59483 24.0759 -23.3289 10.915 -24.9292 9.00883C-27.1983 8.87527 -29.5629 9.04525 -32.0351 9.53089C-37.2779 5.85215 -43.7866 2.08841 -49.9132 0.0122872C-50.2715 -0.109124 -50.7373 0.546495 -51 1.00786V8.46248L-50.3909 10.2108C-49.1967 10.6843 -41.7922 14.1324 -41.7922 15.1158C-44.7182 21.0892 -42.3057 25.035 -38.4602 29.4423C-38.914 34.1773 -39.332 39.8957 -36.3941 43.9873L-37.5287 49.3536C-40.1322 51.7333 -41.3742 54.38 -41.2309 57.3182C-45.0764 58.2288 -48.3248 60.4627 -50.9881 64.0322V89.7834C-50.3193 90.7426 -49.2205 91.5803 -47.6799 92.2845L-44.9092 97.5294C-36.5136 100.638 -33.0741 109.804 -32.7755 118.364L-31.5932 119.578C-32.9069 121.812 -32.8711 123.426 -31.4618 124.434C-33.6832 126.425 -34.8655 129.193 -34.9968 132.751C-38.1617 135.907 -39.6067 139.161 -39.3201 142.488C-41.8519 147.709 -45.5064 151.242 -50.2954 153.099L-50.9881 155.515V158.903L-49.7699 160.02C-43.7628 156.28 -37.9228 155.248 -32.25 156.936L-24.7859 155.697C-25.8368 158.854 -25.1919 160.372 -22.8631 160.25L-14.9451 159.473C-10.2756 162.8 -6.23894 162.666 -1.00806 160.918C-1.21109 163.431 0.0667763 164.33 2.44336 163.601C4.09145 165.993 5.02298 166.879 7.68619 165.01C9.57313 167.729 12.3558 169.915 16.0222 171.541C16.1774 174.686 19.9752 175.803 19.6527 172.452C22.5548 170.497 22.2562 172.221 21.3605 174.662L21.6471 176.519C20.8351 178.353 23.8804 181.874 25.6479 181.266L25.3016 183.282C27.9768 187.507 29.6487 192.291 30.6638 197.208C31.249 203.533 32.8971 209.191 35.6081 214.193C35.1065 221.769 42.2243 222.085 41.6511 214.472L42.511 214.776C42.2721 219.207 42.2602 223.578 42.499 227.888L52.8413 236.909C53.952 235.828 54.8836 235.124 55.6479 234.796C54.2506 242.542 52.7458 251.296 54.788 259.054C56.4241 261.118 57.3318 263.255 57.5109 265.453L58.3111 265.975C55.7315 269.289 54.6208 272.834 55.003 276.61L56.245 283.519C52.0173 289.237 49.3302 296.534 48.1001 303.636L48.9839 305.275L47.3358 306.101L45.2697 313.264C38.7251 318.91 45.4369 327.797 52.5308 327.299C53.7371 330.007 56.1256 331.051 58.6574 329.339C60.4608 326.097 62.4671 328.161 64.6885 335.531L66.3127 335.774C70.8389 344.467 71.448 355.892 69.9671 365.556C68.6057 374.492 66.0738 378.219 57.1049 378.899C50.8589 386.256 34.0675 378.231 32.4314 369.963L32.4911 359.279C32.8016 354.775 24.4298 353.876 23.128 356.523C25.2897 366.139 26.9258 376.034 28.347 385.941C40.3374 392.8 53.2355 401.846 67.6861 399.684V399.672Z" fill="#02002F"/>
</g>
<defs>
<clipPath id="clip0_656_14">
<rect width="409" height="400" fill="white" transform="translate(-51)"/>
</clipPath>
</defs>
</svg>
