<svg width="765" height="908" viewBox="0 0 765 908" fill="none" xmlns="http://www.w3.org/2000/svg">
<g clip-path="url(#clip0_656_22)">
<path d="M767 897.198V316.382L763.379 311.84C751.143 313.825 738.984 314.588 726.901 314.168C722.441 300.313 715.961 288.251 707.461 278.06L710.243 273.785C708.032 267.449 690.651 228.212 686.648 227.563C680.74 226.57 678.796 228.555 676.471 233.861C669.762 214.509 648.531 241.151 656.421 250.388C653.524 250.197 650.208 255.732 647.426 262.106C645.405 268.213 643.538 274.205 641.937 280.198L645.786 283.404C643.919 283.824 642.623 284.893 641.517 286.419C640.526 287.832 640.984 314.741 641.403 322.718C643.538 323.749 645.024 325.161 645.786 327.069C644.147 326.611 641.67 325.924 641.517 324.665C641.479 324.283 641.441 323.596 641.403 322.756C640.221 322.184 638.925 321.726 637.324 321.458C636.372 306.84 638.468 293.557 641.975 280.236L641.784 280.083C641.784 278.137 644.224 269.587 647.426 262.144C647.731 261.266 647.997 260.388 648.302 259.51C645.482 249.701 644.491 240.006 643.69 229.128L646.396 222.105C645.139 215.692 633.894 173.668 632.293 171.302C631.34 169.852 630.311 168.63 629.015 168.172C627.909 167.79 624.555 170.119 622.84 171.416C620.553 173.096 609.422 219.776 608.203 226.189C607.974 227.334 610.261 228.517 611.824 229.166C607.745 230.006 606.983 232.143 607.669 235.693C592.346 233.784 585.904 236.227 588.42 243.021C587.314 243.327 586.285 243.708 585.599 244.434C585.599 244.663 585.523 244.892 585.485 245.082L586.018 269.243C586.552 273.404 587.352 276.572 588.42 277.106C587.467 276.534 586.704 276.266 586.171 276.19L586.247 278.786C584.951 276.992 585.065 276.037 586.171 276.19L586.018 269.281C584.799 259.93 584.76 245.464 585.561 244.472C587.352 233.021 588.496 220.196 582.016 210.005C589.411 208.135 587.086 197.753 579.881 201.494C575.917 209.471 573.859 218.784 573.668 229.471L558.917 228.975C558.116 216.265 558.269 202.829 558.612 190.844C561.013 191.035 563.529 190.959 563.948 188.516C580.796 191.493 583.426 175.081 565.473 175.997C565.778 169.164 562.271 165.195 556.477 162.485V142.484C568.98 139.965 566.426 131.339 556.744 126.034C543.403 90.9182 535.894 51.1844 537.647 13.6643C538.943 4.2748 529.338 -6.25982 525.564 5.19085C524.573 45.9171 522.743 88.4372 507.611 125.919C491.906 131.988 496.671 137.828 507.611 146.149C503.494 149.278 502.122 155.271 503.456 164.126C496.938 166.225 495.184 172.065 494.079 178.172C480.89 179.127 483.482 190.234 496.175 188.898C501.779 191.608 500.94 258.671 498.996 268.823C488.095 274.587 492.554 284.854 498.996 292.488C498.615 319.245 493.698 322.909 469.989 331.23C464.309 334.359 463.89 340.657 469.531 343.864C492.173 345.505 488.628 359.856 483.978 376.841C479.213 390.162 477.117 402.72 477.765 414.591L473.991 413.98C466.063 398.56 461.565 381.193 460.154 363.94C454.284 357.146 450.358 366.078 448.719 372.261C447.957 387.491 443.459 400.201 435.226 410.316C431.604 408.025 430.346 409.247 433.091 412.453C432.252 423.866 431.986 435.393 432.329 447.034C427.754 449.477 424.171 458.676 430.956 461.462C429.584 479.554 433.815 494.822 443.726 507.265L441.362 508.639L442.735 545.548C441.21 547.838 440.295 549.747 439.952 551.197C442.506 551.388 444.374 552.495 443.726 555.167C440.6 555.128 439.38 553.792 439.952 551.197C437.322 550.968 433.93 551.731 432.024 552.8C428.898 554.441 424.667 563.144 423.028 566.655C410.335 567.266 403.702 572.61 403.092 582.686L403.474 612.458C384.949 612.84 376.715 616.924 380.07 637.192C363.946 639.94 361.011 620.092 362.955 607.458L361.697 600.511C354.683 593.336 349.08 585.473 344.887 576.999C349.385 566.045 349.004 557.342 343.744 550.968L344.62 544.556C327.963 516.54 319.196 484.478 312.678 452.721L307.608 448.675C313.669 432.492 304.14 363.101 286.872 405.468C285.653 417.568 283.861 429.515 281.422 441.423L284.204 446.576L282.26 459.515C272.731 479.897 263.506 500.547 254.587 521.54L256.531 527.532C250.699 538.296 242.77 546.769 232.707 553.029C232.326 565.625 230.649 576.465 227.676 585.587C217.194 563.449 208.655 539.784 201.184 516.883C203.7 513.295 203.662 508.41 201.07 502.15L199.126 472.684C196.343 461.767 186.89 459.553 183.536 472.226C179.877 485.966 177.246 505.394 179.915 518.982C173.32 532.227 167.488 545.93 162.457 560.129L146.295 591.847L148.01 597.839C142.941 602 140.806 605.893 141.645 609.557C139.167 623.145 137.757 637.23 137.376 651.887L141.645 654.291C128.685 652.23 132.458 676.964 141.645 678.796C146.371 696.811 148.201 720.972 141.187 737.652C139.281 756.584 138.557 775.516 139.053 794.447C128.151 799.524 125.673 813.799 126.245 824.868C127.884 833.227 132.115 873.457 116.64 852.006C111.418 832.196 100.897 817.921 85.1546 809.104C71.0511 772.424 54.7749 785.936 49.6291 817.196C41.9675 820.479 38.4988 827.387 35.4113 834.83L24.0141 875.213C16.3906 882.007 13.3794 889.831 14.9803 898.687C9.56761 899.488 4.61233 900.519 0.152588 901.817C254.701 919.909 512.032 893.648 767.153 897.427L767 897.198Z" fill="#FFCC6D"/>
</g>
<defs>
<clipPath id="clip0_656_22">
<rect width="767" height="908" fill="white"/>
</clipPath>
</defs>
</svg>
