<svg width="681" height="1018" viewBox="0 0 681 1018" fill="none" xmlns="http://www.w3.org/2000/svg">
<path d="M859.84 -39H0C0.721544 -35.7363 2.88617 -23.0401 3.68789 -21.5696C4.64995 -19.7763 8.12405 -20.4578 9.59386 -18.27C10.9835 -16.1898 10.262 -11.5274 14.1369 -7.61808C16.7826 -4.96407 23.0627 -3.70879 23.3566 -3.17082C24.3721 -1.3417 19.3481 9.16676 19.8825 13.2554C20.2032 15.6942 25.1471 14.0444 25.1739 22.6162C25.1739 26.7048 22.5549 25.844 22.2877 26.4896C18.3058 35.9938 27.4721 31.1879 32.2022 33.0529C35.4358 34.3082 40.5668 46.5023 43.3461 43.7765C44.0943 41.2301 45.7779 25.8081 49.1986 28.1394C49.6262 28.4263 55.5856 36.5676 55.7994 37.1056C57.0821 40.3693 56.4942 45.6774 56.708 46.036C57.2959 47.0044 63.9234 42.4137 65.0191 43.7765C65.3665 44.2069 65.8743 51.2723 68.3596 56.1141C70.738 60.7407 84.6611 77.4897 88.349 72.8631C89.2309 67.1247 84.7948 58.5529 85.0085 54.0698C85.062 52.8504 87.4671 52.8145 87.7076 52.0255C91.5559 39.6162 93.5067 30.7575 98.3705 50.5192C100.963 51.882 101.577 35.8503 104.998 41.5888C105.746 42.844 103.822 50.6268 105.853 50.555L114.138 39.3651C116.249 42.4137 119.055 44.8884 120.712 48.4749C121.861 50.9854 126.19 67.5909 126.805 68.3082C134.127 76.4496 133.673 43.4896 136.719 39.3651C141.262 33.2322 139.659 50.0888 140.006 50.555C140.354 51.0213 149.6 50.9137 149.947 50.4474C150.429 49.8019 151.364 35.7786 153.368 32.6584C156.468 32.479 155.72 42.8799 156.709 43.8124C158.553 45.6057 163.069 37.6436 164.993 39.3651C165.474 39.7955 165.501 47.1478 169.162 46.036C172.048 45.1753 172.663 30.0761 173.358 25.9157L186.666 32.6225L183.352 14.7617H190.033L188.376 1.34818C189.552 -0.301613 202.032 10.709 203.368 2.42413C204.063 -1.98727 197.302 -4.35436 198.398 -9.84171C205.293 -10.021 207.297 -0.0505562 215.047 -3.13495L211.706 10.2786C214.218 11.5697 222.423 6.7638 223.358 8.05494C226.191 12.1077 220.124 15.6583 220.044 16.2322C219.082 23.5486 220.285 31.9769 218.361 39.3293C225.603 39.8672 230.841 32.5508 238.35 34.882L236.693 46.036C238.938 46.6099 247.783 45.247 248.345 46.036C250.215 48.5466 246.795 69.0973 246.661 74.0108C246.501 80.8251 249.734 88.7872 246.661 97.5024C251.177 97.8252 255.159 92.2302 258.339 98.6859C258.607 100.407 251.311 111.49 257.538 113.175C260.584 114 264.86 104.281 268.307 112.099C268.949 117.91 263.497 114.467 260.023 116.583C250.589 122.321 247.035 145.239 248.345 157.899C251.632 163.064 271.675 130.606 266.677 122.106H273.331L271.675 133.296L288.324 128.813V144.486C294.123 146.422 293.615 143.051 295.031 141.473C300.991 134.981 298.078 155.353 300.055 157.792C301.472 159.585 310.878 153.954 312.509 164.606C313.765 163.1 319.323 160.123 319.59 159.728C321.06 157.325 319.59 145.562 326.646 146.745C327.581 148.18 324.214 163.781 331.269 157.218C331.509 157.002 331.99 149.543 334.957 153.452C335.491 154.169 334.663 164.319 339.954 162.382C343.882 142.908 344.043 157.11 347.116 161.737C347.944 162.956 355.748 170.416 356.63 169.089C357.137 165.646 355.881 152.376 356.71 151.3C356.977 150.941 361.36 151.3 364.219 149.076C368.629 145.633 378.757 122.751 380.815 122.106C384.155 121.281 383.781 124.007 382.953 127.234C380.414 136.918 374.722 145.848 376.619 157.935C384.85 160.589 384.075 154.886 389.099 151.228C407.218 177.768 396.528 149.22 400.323 140.505C400.804 139.393 408.153 134.838 409.142 131.108L411.627 140.038C414.781 138.675 426.165 137.779 428.036 140.361C430.2 143.374 430.387 163.781 442.413 166.901C448.239 168.408 443.108 148.574 443.268 144.521L447.411 148.969C456.149 122.393 454.038 141.975 456.817 144.199C458.528 145.562 462.616 144.055 464.915 144.521C466.144 142.943 462.055 130.893 468.228 133.332C467.614 149.435 473.466 165.646 484.877 171.349C487.87 155.353 480.174 143.087 486.588 126.661L488.245 155.711C491.398 159.477 500.19 139.787 502.622 138.389C514.193 131.718 518.843 159.8 525.738 164.642C530.228 167.798 527.368 152.448 528.224 151.228C548.32 158.007 555.134 191.325 569.779 208.325C574.99 214.351 580.522 216.359 585.386 220.52C587.657 222.456 586.294 224.536 586.562 227.226C584.344 230.275 555.295 220.914 553.424 218.045C552.809 217.112 553.745 205.528 551.687 199.108C549.175 191.254 536.909 178.45 530.789 177.912C527.769 177.661 526.834 180.458 528.25 182.467C529.479 184.188 538.913 185.946 542.547 191.254C544.258 193.764 551.767 214.781 545.781 211.553C542.2 209.617 536.935 203.268 531.885 201.117C516.492 194.625 503.638 204.811 488.913 198.498C484.289 196.526 482.82 187.631 479.827 183.758C477.689 180.996 461.601 162.418 459.944 164.606C457.272 168.157 469.939 178.701 471.676 181.283C485.599 201.762 477.315 203.268 500.725 209.401C508.207 211.374 502.248 225.971 499.522 228.912C498.934 229.557 486.508 235.224 485.332 235.547C473.012 238.99 459.383 229.557 446.636 236.193L469.137 240.604H489.955C490.302 244.657 489.955 247.885 488.993 251.722C487.309 258.465 481.884 258.572 481.617 265.207C494.124 267.108 491.745 248.638 495.888 240.747C497.277 238.129 506.925 227.908 509.998 223.891C515.824 216.216 516.331 206.209 528.224 212.737C542.04 220.34 549.068 243.366 569.245 247.095C586.856 250.359 596.984 240.46 609.063 240.353C614.381 240.317 618.096 244.298 622.559 244.872C636.054 246.593 649.844 244.728 662.537 238.344L665.023 239.313C678.278 268.005 689.502 300.714 696.103 334.068C700.966 358.672 712.912 424.843 711.389 447.187C706.178 523.221 714.596 526.664 728.251 593.946C731.084 607.862 734.104 623.141 734.906 637.594C737.765 689.347 734.291 746.086 729.908 797.445L720.127 780.373C718.177 777.54 718.898 773.379 718.257 770.618C708.476 767.605 700.432 758.388 690.678 755.088C683.516 752.649 677.289 752.111 669.94 752.721C673.307 746.229 668.657 748.919 668.283 748.274C669.566 756.666 661.789 748.955 663.286 757.204C666.092 755.841 668.283 758.926 669.967 759.464C695.541 767.677 709.09 775.137 719.967 808.67C722.8 817.422 724.537 817.063 725.045 829.831C725.151 832.449 726.22 842.204 723.334 842.204C721.865 832.7 719.967 822.981 719.967 813.154L716.653 819.86C715.237 814.839 696.744 784.103 693.323 788.586C696.263 798.628 703.372 806.124 707.38 815.557C709.518 820.542 713.767 831.445 713.313 836.645C708.342 841.343 707.353 832.485 704.2 828.755C694.74 817.565 683.917 803.649 673.307 795.293C666.439 789.913 653.238 781.341 645.621 779.871C643.857 779.548 639.582 777.934 639.983 781.843C648.16 786.327 665.744 795.149 672.131 801.856C674.456 804.295 674.296 807.559 674.964 810.93C679.935 809.818 682.821 813.225 686.482 816.74C688.78 818.964 700.833 836.538 701.608 838.94C702.516 841.702 701.153 843.173 699.149 842.24L676.621 826.603C671.971 826.746 667.294 826.173 662.644 826.89C660.907 827.141 654.841 827.751 654.975 831.086C660.64 827.571 684.211 843.065 678.305 851.242C676.995 853.036 647.412 849.162 641.639 857.985C641.853 863.867 648.187 857.985 649.122 857.985H673.281C674.082 864.799 671.998 861.536 669.218 862.504C656.177 866.987 645.06 872.008 632.553 878.249C627.503 861.966 624.269 845.827 613.205 834.637C612.217 833.633 603.852 826.89 603.317 826.675C597.358 824.092 588.031 824.63 581.644 824.451C581.644 824.738 579.854 824.989 580.308 826.208C581.35 826.782 582.473 828.54 583.301 828.934C591.693 832.772 596.583 833.166 604.974 840.124C616.145 849.413 622.826 863.114 623.36 881.441C623.441 883.915 624.296 887.681 621.65 887.071C621.516 872.797 606.604 858.595 604.974 849.055L598.32 853.502C604.52 854.327 605.562 861.715 608.315 866.951C611.949 873.873 618.63 882.373 615.824 891.555C612.938 887.574 611.121 882.122 608.315 878.141C602.569 870 590.624 856.479 583.328 851.314C577.983 847.548 567.508 841.451 561.682 843.46C569.565 849.019 577.449 853.86 585.012 860.244C594.044 867.884 604.28 876.563 608.315 890.479C600.03 884.92 595.3 877.065 585.012 875.917C581.591 875.559 576.219 874.913 575.017 880.365C581.11 881.046 589.341 883.306 588.325 893.778C583.168 893.742 578.09 893.455 572.932 894.424C570.287 894.926 565.423 894.854 566.679 900.485C578.063 894.962 595.862 900.987 591.318 921.287C590.437 925.196 571.89 946.751 568.897 947.145C562.083 948.006 564.033 933.732 562.911 929.069C557.914 908.555 541.879 891.304 525.845 889.367L511.708 891.555C535.679 897.257 556.337 913.576 556.684 949.728C552.462 944.312 551.126 936.529 547.384 929.787C544.819 925.16 537.898 913.612 533.381 917.27C540.222 925.555 548.079 939.148 547.545 951.915C533.06 932.01 517.187 909.164 495.059 907.228L522.264 927.707C527.849 934.915 535.706 939.219 538.379 949.656C528.678 946.823 518.416 933.804 508.394 944.097C514.3 946.894 524.803 951.091 528.384 958.622C531.243 964.648 529.854 962.603 528.384 967.553C528.143 968.306 528.918 970.314 528.036 971.462C527.315 972.394 524.91 973.435 521.489 974.439C542.708 991.224 555.134 1022.18 555.829 1057H860V799.812C854.575 801.641 849.016 803.04 843.859 806.088C838.167 809.46 833.891 815.341 828.386 818.856C835.548 800.493 847.066 788.084 860 777.468V770.761C853.292 772.303 845.168 781.521 839.984 787.51C836.055 792.065 822.079 814.66 820.769 815.413C819.914 815.915 816.734 816.274 816.654 814.373C816.467 810.679 823.95 791.097 826.034 786.685C829.481 779.369 836.536 772.769 838.327 764.09C833.303 757.993 815.558 790.989 814.997 797.624C807.274 788.371 811.336 778.078 815.959 768.717C825.473 749.529 843.592 737.873 860 732.78V726.073C839.984 725.535 823.388 735.542 810.026 755.16C807.568 711.297 808.423 667.219 808.343 623.212C808.289 593.157 808.476 563.174 807.087 533.191C829.588 495.748 845.355 452.279 860 408.524V-39H859.84ZM608.261 67.2323C608.716 64.5424 608.555 60.3103 611.522 63.861C611.896 64.3272 611.949 69.2407 613.098 71.2133C614.328 73.4011 617.588 73.9032 617.989 76.2703C618.31 78.2787 616.305 84.8062 616.466 89.4686C616.679 95.7809 619.592 100.3 619.886 106.325C617.454 109.768 605.589 85.6669 605.268 82.4032C605.188 81.6142 607.727 70.496 608.261 67.2323ZM608.956 202.659C577.93 186.591 570.554 154.313 548.026 134.659C537.604 125.585 530.896 133.547 534.878 110.808C539.982 108.907 542.12 114.753 546.529 115.291C549.335 109.41 539.474 91.0825 541.559 88.4644C545.407 83.5867 549.148 99.6543 553.21 95.1711C553.665 94.669 554.493 75.0867 558.208 81.7576C558.876 82.977 557.593 92.1226 558.208 92.9475C558.822 93.7724 565.931 92.1226 566.545 92.9475C567.187 93.7724 566.064 111.561 566.545 115.327C570.554 117.551 578.838 103.277 579.827 104.173L646.503 209.258C633.115 210.334 621.463 209.186 608.93 202.695L608.956 202.659ZM758.022 226.15C757.781 230.741 754.414 231.781 753.559 235.475C752.009 242.254 752.811 259.218 749.176 263.127C735.44 277.975 723.12 236.3 717.188 225.11C690.544 174.863 670.261 172.496 639.074 137.635C636.455 134.694 620.528 114 619.886 111.956C616.385 100.981 632.66 121.46 633.195 122.034C632.954 106.54 635.787 96.2471 627.449 83.9454C625.872 81.6142 619.993 77.4538 619.966 76.2344C619.966 75.4454 625.659 67.3757 623.227 61.6732C624.242 59.8799 631.885 70.0656 632.74 71.3926C633.783 72.9707 632.233 79.534 635.707 77.3104C639.074 75.1585 641.399 63.6816 646.557 63.8968C645.782 74.3336 652.837 73.7956 648.24 86.2407L658.235 84.0171C658.395 90.6163 658.529 100.945 660.346 106.899C660.774 108.334 668.684 121.747 669.379 122.07C678.518 126.087 673.655 112.745 674.777 105.393C675.124 103.097 678.331 104.926 679.427 103.671C681.324 101.483 685.734 78.5656 688.219 104.173L694.873 97.4306L697.412 108.621C700.539 110.414 699.71 104.102 700.753 104.03C709.465 103.456 713.634 131.108 709.892 139.931C712.752 138.496 725.071 138.066 726.461 140.074C728.251 142.621 722.399 151.659 733.222 148.897L731.565 171.241L744.874 169.017L743.217 175.688H751.555C751.234 181.462 749.363 208.576 751.555 211.481C752.116 212.235 756.579 211.087 758.209 211.481C755.697 216.861 758.236 222.349 758.049 226.15H758.022ZM845.115 304.659C838.808 335.969 837.552 342.568 834.826 375.851C831.325 418.351 816.119 441.018 800.005 476.632C799.123 478.604 800.887 481.079 796.531 479.86L775.072 375.6C772.079 338.623 779.615 315.598 793.377 284.933C795.916 279.266 803.506 269.798 806.071 264.526C807.461 261.657 804.762 254.268 810.988 254.52C813.1 254.591 814.302 257.138 816.013 257.604C817.723 258.07 819.861 256.133 821.544 257.245C823.682 258.644 823.896 262.589 824.805 263.701C832.368 272.954 828.76 254.017 830.176 252.009C830.604 251.399 833.223 252.117 834.238 250.933C836.323 248.53 844.286 232.749 846.558 236.121L844.874 256.241H851.555C849.791 272.344 848.322 288.878 845.142 304.695L845.115 304.659Z" fill="#FFCC6D"/>
</svg>
