<svg width="255" height="269" viewBox="0 0 255 269" fill="none" xmlns="http://www.w3.org/2000/svg">
<path d="M344.543 66.9347C337.312 42.3987 320.469 20.8331 298.411 7.8796C289.444 2.6139 278.445 -1.29602 268.787 2.55297C260.876 5.7063 255.6 13.5973 253.579 21.869C251.558 30.1408 252.33 38.8239 253.488 47.2581C257.854 79.1012 267.558 110.203 282.076 138.877C265.781 113.783 232.689 100.951 203.735 108.497C174.781 116.042 152.165 143.402 150.194 173.254C138.033 162.007 122.927 152.014 106.383 152.785C91.7741 153.466 78.6175 162.657 69.6907 174.244C60.7639 185.827 55.3915 199.694 50.136 213.344C42.7731 210.094 31.1399 213.77 24.8789 218.828C18.618 223.885 15.5052 232.548 17.1302 240.429C19.0597 249.812 27.0167 257.038 35.8724 260.684C44.7281 264.335 54.4826 265 64.0391 265.62C122.368 269.418 182.657 272.962 237.629 253.088C275.383 239.438 309.537 214.379 330.838 180.353C352.139 146.326 355.892 105.44 344.543 66.9347Z" fill="#212274" stroke="black" stroke-width="0.500682" stroke-miterlimit="10"/>
<path d="M268.965 233.701C250.786 222.652 241.25 199.08 246.628 178.5C248.999 169.426 253.909 161.098 255.631 151.872C257.352 142.651 254.62 131.418 246.023 127.661C274.19 92.7813 286.544 44.7908 276.379 1.12659C257.057 11.8408 244.927 32.5735 239.615 54.0222C234.304 75.4659 234.959 97.8794 235.649 119.958C236.716 115.007 235.985 112.443 237.051 107.492C227.83 102.805 218.608 98.1232 209.382 93.4363C201.613 89.4909 192.031 85.586 184.673 90.2525C178.108 94.4163 176.818 103.846 179.341 111.199C181.865 118.551 187.253 124.492 191.909 130.718C196.565 136.943 200.75 144.22 200.201 151.979C199.673 159.458 194.788 165.968 189.111 170.868C183.439 175.768 176.843 179.51 171.166 184.405C155.135 198.222 147.828 221.392 153.038 241.907C171.902 249.031 191.127 255.414 211.256 256.577C231.389 257.734 255.697 248.884 268.965 233.701Z" fill="#3A0F69"/>
<mask id="mask0_178_661" style="mask-type:luminance" maskUnits="userSpaceOnUse" x="151" y="1" width="129" height="256">
<path d="M268.965 233.7C250.786 222.651 241.25 199.08 246.628 178.499C248.999 169.425 253.909 161.098 255.631 151.871C257.352 142.65 254.62 131.418 246.023 127.66C274.19 92.7805 286.544 44.79 276.379 1.12585C257.057 11.8401 244.927 32.5728 239.615 54.0215C234.304 75.4652 234.959 97.8787 235.649 119.957C236.716 115.006 235.985 112.442 237.051 107.491C227.83 102.804 218.608 98.1224 209.382 93.4356C201.613 89.4901 192.031 85.5853 184.673 90.2518C178.108 94.4156 176.818 103.845 179.341 111.198C181.865 118.55 187.253 124.492 191.909 130.717C196.565 136.942 200.75 144.219 200.201 151.978C199.673 159.457 194.788 165.967 189.111 170.867C183.439 175.767 176.843 179.51 171.166 184.405C155.135 198.221 147.828 221.392 153.038 241.906C171.902 249.03 191.127 255.413 211.256 256.576C231.389 257.734 255.697 248.883 268.965 233.7Z" fill="white"/>
</mask>
<g mask="url(#mask0_178_661)">
<path d="M268.437 144.346C265.659 150.531 260.399 154.416 255.107 157.224C249.816 160.032 244.205 162.098 239.417 166.034C234.629 169.969 230.668 176.362 230.917 183.415C231.145 189.884 234.806 195.602 235.06 202.071C235.446 211.856 228.225 219.32 221.472 224.571C207.635 235.326 192.706 243.973 177.138 250.249C214.378 271.383 256.489 279.452 297.218 273.252C300.391 225.51 297.705 177.195 289.281 130.423C288.347 125.228 286.57 119.089 282.314 118.048C278.831 117.2 269.65 121.704 268.513 126.005C266.964 131.911 271.524 137.471 268.437 144.346Z" fill="#27034D"/>
</g>
<mask id="mask1_178_661" style="mask-type:luminance" maskUnits="userSpaceOnUse" x="151" y="1" width="129" height="256">
<path d="M268.965 233.7C250.786 222.651 241.25 199.08 246.628 178.499C248.999 169.425 253.909 161.098 255.631 151.871C257.352 142.65 254.62 131.418 246.023 127.66C274.19 92.7805 286.544 44.79 276.379 1.12585C257.057 11.8401 244.927 32.5728 239.615 54.0215C234.304 75.4652 234.959 97.8787 235.649 119.957C236.716 115.006 235.985 112.442 237.051 107.491C227.83 102.804 218.608 98.1224 209.382 93.4356C201.613 89.4901 192.031 85.5853 184.673 90.2518C178.108 94.4156 176.818 103.845 179.341 111.198C181.865 118.55 187.253 124.492 191.909 130.717C196.565 136.942 200.75 144.219 200.201 151.978C199.673 159.457 194.788 165.967 189.111 170.867C183.439 175.767 176.843 179.51 171.166 184.405C155.135 198.221 147.828 221.392 153.038 241.906C171.902 249.03 191.127 255.413 211.256 256.576C231.389 257.734 255.697 248.883 268.965 233.7Z" fill="white"/>
</mask>
<g mask="url(#mask1_178_661)">
<path d="M193.59 178.134C188.954 187.564 181.819 195.551 176.736 204.747C167.937 220.666 165.733 240.104 170.75 257.587C162.204 260.725 152.419 255.342 147.539 247.66C142.659 239.977 141.506 230.583 140.471 221.539C139.435 212.46 138.399 203.254 139.75 194.21C141.1 185.172 145.147 176.164 152.5 170.736C162.402 163.429 176.066 161.87 186.933 156.152C202.862 147.764 198.124 168.908 193.59 178.134Z" fill="#623298"/>
</g>
<mask id="mask2_178_661" style="mask-type:luminance" maskUnits="userSpaceOnUse" x="151" y="1" width="129" height="256">
<path d="M268.965 233.7C250.786 222.651 241.25 199.08 246.628 178.499C248.999 169.425 253.909 161.098 255.631 151.871C257.352 142.65 254.62 131.418 246.023 127.66C274.19 92.7805 286.544 44.79 276.379 1.12585C257.057 11.8401 244.927 32.5728 239.615 54.0215C234.304 75.4652 234.959 97.8787 235.649 119.957C236.716 115.006 235.985 112.442 237.051 107.491C227.83 102.804 218.608 98.1224 209.382 93.4356C201.613 89.4901 192.031 85.5853 184.673 90.2518C178.108 94.4156 176.818 103.845 179.341 111.198C181.865 118.55 187.253 124.492 191.909 130.717C196.565 136.942 200.75 144.219 200.201 151.978C199.673 159.457 194.788 165.967 189.111 170.867C183.439 175.767 176.843 179.51 171.166 184.405C155.135 198.221 147.828 221.392 153.038 241.906C171.902 249.03 191.127 255.413 211.256 256.576C231.389 257.734 255.697 248.883 268.965 233.7Z" fill="white"/>
</mask>
<g mask="url(#mask2_178_661)">
<path d="M183.515 101.916C185.14 102.073 186.765 102.231 188.385 102.383C188.131 98.7676 191.005 95.4873 194.402 94.2331C197.799 92.9789 201.577 93.3597 205.126 94.1061C215.577 96.3099 225.346 101.647 232.846 109.248C234.207 100.149 229.591 90.8208 222.482 84.9813C215.374 79.1418 206.122 76.4353 196.956 75.6533C189.837 75.0491 182.17 75.6838 176.467 79.9898C169.038 85.5957 166.911 96.2439 169.018 105.308C170.805 112.991 175.401 122.187 181.251 127.478C183.231 125.944 183.947 101.956 183.515 101.916Z" fill="#623298"/>
</g>
<mask id="mask3_178_661" style="mask-type:luminance" maskUnits="userSpaceOnUse" x="151" y="1" width="129" height="256">
<path d="M268.965 233.7C250.786 222.651 241.25 199.08 246.628 178.499C248.999 169.425 253.909 161.098 255.631 151.871C257.352 142.65 254.62 131.418 246.023 127.66C274.19 92.7805 286.544 44.79 276.379 1.12585C257.057 11.8401 244.927 32.5728 239.615 54.0215C234.304 75.4652 234.959 97.8787 235.649 119.957C236.716 115.006 235.985 112.442 237.051 107.491C227.83 102.804 218.608 98.1224 209.382 93.4356C201.613 89.4901 192.031 85.5853 184.673 90.2518C178.108 94.4156 176.818 103.845 179.341 111.198C181.865 118.55 187.253 124.492 191.909 130.717C196.565 136.942 200.75 144.219 200.201 151.978C199.673 159.457 194.788 165.967 189.111 170.867C183.439 175.767 176.843 179.51 171.166 184.405C155.135 198.221 147.828 221.392 153.038 241.906C171.902 249.03 191.127 255.413 211.256 256.576C231.389 257.734 255.697 248.883 268.965 233.7Z" fill="white"/>
</mask>
<g mask="url(#mask3_178_661)">
<path d="M268.036 23.7376C260.541 40.337 253.579 38.5953 248.532 52.3866C244.165 64.3195 248.146 68.986 246.094 85.9104C245.058 94.431 242.418 106.714 234.948 121.257C235.207 95.6649 230.967 68.8591 239.392 44.2164C242.804 34.2385 247.313 24.6668 252.497 15.4912C255.204 10.6977 263.74 -8.30857 269.407 -9.18703C270.183 -9.3089 271.092 -9.35461 271.981 -8.84682C276.967 -5.99309 273.743 11.0989 268.036 23.7376Z" fill="#52217D"/>
</g>
<path d="M224.991 120.293C238.518 81.3464 234.121 36.5701 213.281 1C202.171 40.7949 198.769 82.7225 203.319 123.787" fill="#3A0F69"/>
<mask id="mask4_178_661" style="mask-type:luminance" maskUnits="userSpaceOnUse" x="201" y="1" width="32" height="123">
<path d="M224.991 120.294C238.518 81.3472 234.121 36.571 213.281 1.00085C202.171 40.7957 198.769 82.7233 203.319 123.788" fill="white"/>
</mask>
<g mask="url(#mask4_178_661)">
<path d="M213.581 26.7858C212.007 44.6445 208.554 44.4769 207.894 62.3914C207.589 70.648 211.656 81.936 210.727 90.1468C209.798 98.3576 208.671 117.491 203.324 123.782C204.69 122.178 195.915 121.416 195.514 118.71C194.544 112.103 193.798 105.467 193.28 98.8147C192.213 85.1858 192.092 71.4858 192.904 57.8417C193.716 44.1976 195.468 30.6094 198.149 17.2039C199.454 10.6738 200.881 4.11328 202.745 -2.28478C204.299 -7.63172 207.559 -12.4506 210.595 -5.19439C216.11 7.98764 214.815 12.7811 213.581 26.7858Z" fill="#52217D"/>
</g>
<path d="M143.487 239.402C165.575 189.234 158.7 127.467 126.126 83.3813C108.826 100.681 102.123 128.554 111.126 151.302C113.939 158.406 118.001 166.647 113.929 173.112C110.699 178.235 103.651 179.637 99.843 184.349C96.2784 188.756 96.3495 194.941 95.73 200.577C93.6887 219.172 81.7457 236.381 65.0396 244.8C84.4775 253.255 105.835 257.266 127.02 256.444C130.99 256.291 135.088 255.931 138.597 254.057C142.106 252.188 141.882 243.038 143.487 239.402Z" fill="#181648"/>
<mask id="mask5_178_661" style="mask-type:luminance" maskUnits="userSpaceOnUse" x="65" y="83" width="92" height="174">
<path d="M143.487 239.402C165.576 189.233 158.7 127.466 126.126 83.3806C108.826 100.681 102.123 128.553 111.126 151.302C113.939 158.405 118.001 166.647 113.929 173.111C110.7 178.234 103.652 179.636 99.8432 184.348C96.2786 188.756 96.3497 194.94 95.7302 200.577C93.6889 219.172 81.7458 236.38 65.0398 244.799C84.4777 253.254 105.835 257.266 127.02 256.443C130.991 256.291 135.088 255.93 138.597 254.056C142.106 252.188 141.882 243.037 143.487 239.402Z" fill="white"/>
</mask>
<g mask="url(#mask5_178_661)">
<path d="M135.002 175.808C134.387 206.676 127.304 238.168 109.638 263.491C96.649 262.466 83.665 261.445 70.676 260.419C67.0859 260.135 63.3233 259.795 60.3223 257.799C53.5942 253.32 54.1121 243.419 55.6152 235.477C63.7955 192.28 78.6532 150.357 99.4164 111.609C105.139 100.93 113.426 84.6099 121.226 75.3378C131.559 86.6308 129.594 101.224 131.097 121.972C132.392 139.938 135.362 157.791 135.002 175.808Z" fill="#332886"/>
</g>
<mask id="mask6_178_661" style="mask-type:luminance" maskUnits="userSpaceOnUse" x="65" y="83" width="92" height="174">
<path d="M143.487 239.402C165.576 189.233 158.7 127.466 126.126 83.3806C108.826 100.681 102.123 128.553 111.126 151.302C113.939 158.405 118.001 166.647 113.929 173.111C110.7 178.234 103.652 179.636 99.8432 184.348C96.2786 188.756 96.3497 194.94 95.7302 200.577C93.6889 219.172 81.7458 236.38 65.0398 244.799C84.4777 253.254 105.835 257.266 127.02 256.443C130.991 256.291 135.088 255.93 138.597 254.056C142.106 252.188 141.882 243.037 143.487 239.402Z" fill="white"/>
</mask>
<g mask="url(#mask6_178_661)">
<path d="M118.159 144.442C120.561 154.135 124.755 163.651 124.262 173.624C123.744 184.084 118.149 193.524 112.705 202.471C107.069 211.738 101.366 221.092 93.775 228.835C81.9843 240.865 66.3345 248.304 50.6237 254.382C65.6033 235.64 68.6297 210.403 72.8595 186.786C77.3127 161.889 83.7057 137.338 91.9572 113.427C94.684 105.52 97.7408 97.4771 103.367 91.2923C107.373 86.8848 116.681 75.2109 123.039 76.1249C131.458 77.3334 121.815 93.1254 119.966 98.7618C115.163 113.427 114.447 129.447 118.159 144.442Z" fill="#FFBBB4"/>
</g>
<path d="M86.7368 149.926C86.356 143.107 85.7873 135.754 79.8056 131.255C77.1651 129.27 73.6208 128.782 70.6655 130.25C66.1615 132.484 66.0397 137.323 65.2018 141.563C64.4808 145.204 62.3735 149.312 58.4534 149.246C56.3867 149.21 54.5587 147.956 53.5076 146.174C51.4714 142.731 52.0756 138.831 52.5529 135.099C58.2553 90.3785 42.4989 43.4036 10.991 11.1594C-0.109131 39.9964 -2.89178 71.9765 3.05435 102.296C7.3248 124.06 15.9114 144.706 24.4472 165.175C21.7661 161.554 18.8921 157.766 14.1748 156.786C11.5394 156.238 8.7415 157.101 7.16737 159.28C4.29841 163.25 7.40096 168.567 10.407 172.37C17.2519 181.033 24.0968 189.696 30.9417 198.364C33.0947 201.09 30.9722 205.021 27.504 204.797C27.4583 204.792 27.4127 204.792 27.367 204.787C22.7157 204.533 17.5414 207.427 16.9625 212.043C16.4852 215.862 19.1409 219.31 21.8067 222.082C34.9938 235.802 59.3826 251.224 79.44 249.375C98.9287 247.578 90.0476 208.793 89.3875 197.008C88.4938 181.322 87.6153 165.622 86.7368 149.926Z" fill="#181648"/>
<mask id="mask7_178_661" style="mask-type:luminance" maskUnits="userSpaceOnUse" x="0" y="11" width="92" height="239">
<path d="M86.7369 149.925C86.3561 143.106 85.7873 135.753 79.8057 131.254C77.1652 129.269 73.6209 128.781 70.6656 130.249C66.1616 132.483 66.0397 137.322 65.2019 141.562C64.4808 145.203 62.3735 149.311 58.4534 149.245C56.3868 149.209 54.5588 147.955 53.5076 146.173C51.4714 142.73 52.0757 138.83 52.553 135.098C58.2554 90.3778 42.4989 43.4029 10.9911 11.1587C-0.10907 39.9956 -2.89172 71.9758 3.05441 102.295C7.32486 124.059 15.9115 144.705 24.4473 165.174C21.7662 161.554 18.8921 157.766 14.1748 156.786C11.5394 156.237 8.74156 157.1 7.16743 159.279C4.29847 163.25 7.40102 168.566 10.4071 172.369C17.252 181.032 24.0969 189.695 30.9418 198.363C33.0948 201.09 30.9723 205.02 27.5041 204.796C27.4584 204.791 27.4127 204.791 27.367 204.786C22.7157 204.532 17.5414 207.427 16.9626 212.042C16.4853 215.861 19.1409 219.309 21.8068 222.081C34.9939 235.802 59.3827 251.223 79.4401 249.375C98.9288 247.577 90.0476 208.793 89.3875 197.007C88.4938 181.322 87.6154 165.621 86.7369 149.925Z" fill="white"/>
</mask>
<g mask="url(#mask7_178_661)">
<path d="M65.0649 193.164C50.0497 170.318 33.3691 147.89 25.4121 121.739C18.6383 99.4625 18.6129 75.8049 17.1759 52.5638C15.7389 29.3276 12.5703 5.36033 0.46479 -14.5244C-8.4417 58.2662 -17.3431 131.986 -7.78667 204.695C-6.03482 218.03 -3.46542 231.775 4.2681 242.779C13.7586 256.276 29.9669 263.816 46.2668 266.381C58.352 268.285 70.6809 267.787 82.8119 266.635C94.5061 265.522 95.5572 262.389 92.8761 250.995C87.9303 229.998 76.7997 211.022 65.0649 193.164Z" fill="#332884"/>
</g>
<mask id="mask8_178_661" style="mask-type:luminance" maskUnits="userSpaceOnUse" x="0" y="11" width="92" height="239">
<path d="M86.7369 149.925C86.3561 143.106 85.7873 135.753 79.8057 131.254C77.1652 129.269 73.6209 128.781 70.6656 130.249C66.1616 132.483 66.0397 137.322 65.2019 141.562C64.4808 145.203 62.3735 149.311 58.4534 149.245C56.3868 149.209 54.5588 147.955 53.5076 146.173C51.4714 142.73 52.0757 138.83 52.553 135.098C58.2554 90.3778 42.4989 43.4029 10.9911 11.1587C-0.10907 39.9956 -2.89172 71.9758 3.05441 102.295C7.32486 124.059 15.9115 144.705 24.4473 165.174C21.7662 161.554 18.8921 157.766 14.1748 156.786C11.5394 156.237 8.74156 157.1 7.16743 159.279C4.29847 163.25 7.40102 168.566 10.4071 172.369C17.252 181.032 24.0969 189.695 30.9418 198.363C33.0948 201.09 30.9723 205.02 27.5041 204.796C27.4584 204.791 27.4127 204.791 27.367 204.786C22.7157 204.532 17.5414 207.427 16.9626 212.042C16.4853 215.861 19.1409 219.309 21.8068 222.081C34.9939 235.802 59.3827 251.223 79.4401 249.375C98.9288 247.577 90.0476 208.793 89.3875 197.007C88.4938 181.322 87.6154 165.621 86.7369 149.925Z" fill="white"/>
</mask>
<g mask="url(#mask8_178_661)">
<path d="M29.5405 208.326C33.7449 209.23 38.7365 207.955 40.8895 204.233C42.6769 201.141 42.0777 197.119 40.3004 194.022C38.5232 190.924 35.7405 188.553 33.0138 186.248C28.8347 182.713 24.6506 179.179 20.4715 175.65C18.2424 173.766 15.9624 171.816 14.6219 169.227C13.2813 166.637 12.1541 164.195 14.0989 161.767C16.1655 159.188 21.1621 160.066 22.5128 162.651C14.5965 155.517 7.30473 150.804 10.0823 140.512C13.0224 129.62 17.3741 126.421 11.1182 116.829C3.22218 104.723 8.3863 77.2877 7.00006 56.3112C5.76614 37.5994 8.23399 14.7289 15.4394 -3.09424C0.231346 17.0901 -1.99783 47.9582 -3.14034 73.2051C-5.18163 118.21 -6.93348 164.946 10.5038 206.483C14.109 204.188 15.8609 202.283 19.781 203.37C23.1628 204.309 25.7931 207.524 29.5405 208.326Z" fill="#FFBBB4"/>
</g>
</svg>
