<svg width="444" height="1238" viewBox="0 0 444 1238" fill="none" xmlns="http://www.w3.org/2000/svg">
<g clip-path="url(#clip0_675_17)">
<path d="M1.60084 207.503C-7.33117 167.709 23.3942 162.814 36.6922 138.194C66.9992 122.763 98.3249 110.939 130.069 104.784C137.618 103.324 148.57 106.788 154.937 103.839C162.741 100.232 188.409 48.0712 199.397 42.1165C214.805 33.757 240.109 31.9247 256.736 26.4281C295.52 13.5453 323.808 -3.77491 364.503 1.40683C371.288 2.26569 390.043 4.41282 395.101 7.76235C401.668 12.1139 415.384 41.3149 426.845 49.3022C439.688 58.2629 457.716 58.7496 468.703 67.0805C470.031 68.0825 472.869 66.3934 474.233 67.6817C477.381 70.6304 477.29 132.725 480.51 145.207C482.729 153.825 493.498 166.078 494.553 174.638C497.173 195.908 490.933 234.127 489.132 256.171C468.667 258.834 410.272 285.945 388.661 297.024C377.546 302.721 355.352 323.133 346.147 324.822C336.942 326.511 299.141 311.138 285.988 308.189C270.653 304.725 255.099 304.067 239.909 299.114C238.799 314.86 236.616 340.368 232.214 354.31C229.795 362.011 223.791 367.708 219.88 373.548C212.84 384.083 203.854 399.342 194.412 402.176C194.449 388.979 193.848 375.437 194.43 362.125L198.032 399.314C198.906 392.385 202.562 366.792 205.345 363.585C209.02 359.377 219.153 360.121 223.955 358.489C225.72 357.888 229.413 357.459 228.958 353.565C219.698 354.796 209.657 348.441 200.743 347.84C186.153 346.866 152.208 376.439 139.438 390.782C137.982 392.414 137.382 396.193 136.054 397.567C123.775 410.164 110.604 389.723 99.8166 382.165C91.7032 357.001 83.8263 331.493 81.6251 302.005C81.1521 295.65 81.9344 288.436 81.6251 281.966L92.5218 284.828C95.6144 279.933 81.425 266.363 77.2592 267.422C74.4577 268.138 74.8579 287.176 68.8911 284.828C67.7814 274.78 67.454 269.713 67.0719 259.063C66.8355 252.707 68.3454 233.183 65.9441 230.148L1.60084 207.503ZM176.239 310.565H208.074C209.857 310.565 238.454 296.738 239.909 294.82C242.674 291.184 242.474 276.125 240.782 276.154L176.221 310.565H176.239Z" fill="#FFCC6D"/>
<path d="M507.324 259.034C527.644 265.018 520.058 270.285 531.118 283.14C537.722 290.812 556.332 303.237 566.064 312.57C571.194 317.494 592.733 320.901 595.625 327.628C596.789 351.247 597.826 376.497 594.643 399.314C585.165 399.629 586.202 393.817 582.491 382.538C581.199 378.644 583.382 374.837 578.289 376.411C577.67 382.309 578.907 386.631 580.29 391.842C581.509 396.48 586.839 413.628 591.023 413.599C590.55 417.035 593.369 445.434 594.534 446.723C596.917 449.328 603.993 447.381 607.85 448.669C615.527 451.246 662.879 470.685 665.662 475.151C668.064 478.987 666.827 483.252 667.427 485.171L669.264 502.319C661.369 496.736 651.709 527.083 652.746 534.841C653.201 538.248 661.969 540.824 664.171 542.656C668.336 546.149 667.9 546.149 671.083 548.124C684.49 556.455 678.269 586.086 681.816 603.521C670.647 617.348 676.705 610.792 678.269 616.06C681.052 625.479 677.305 647.522 672.903 652.59C671.411 654.307 657.913 658.888 654.711 659.747C655.784 651.845 652.237 654.193 648.999 653.134C640.558 650.328 628.061 644.688 620.147 651.158C619.492 650.7 618.91 648.696 618.328 648.295L614.69 645.433C608.632 641.625 580.071 633.323 574.669 633.981C564.827 627.712 554.094 620.44 543.743 616.804C544.453 609.218 540.578 611.737 538.104 610.076C531.518 605.639 525.242 599.656 518.275 596.764C518.712 590.351 507.979 580.102 514.619 572.373C519.148 567.105 543.852 563.641 552.329 557.286C562.28 549.842 570.157 529.115 581.454 524.248C585.747 509.304 594.315 490.667 596.498 474.75C597.608 466.677 591.186 468.222 592.842 459.348C588.403 458.432 589.949 459.348 589.04 463.327C586.166 475.609 584.619 491.698 583.528 504.781C551.856 517.091 518.621 522.617 486.967 534.612C475.689 538.878 462.645 544.174 452.786 553.822C451.912 554.68 449.948 554.337 449.147 556.684C435.758 548.697 419.059 538.334 405.506 532.322C394.045 527.226 380.802 526.739 370.924 522.33C351.659 513.742 365.558 503.722 362.902 487.804C361.501 479.416 358.063 481.821 354.552 479.388C352.987 478.3 354.152 471.4 347.275 476.525C347.275 470.083 344.692 469.053 341.909 466.362C332.485 457.229 317.423 448.44 309.073 439.308C308.891 439.107 309.528 435.672 308.491 434.412C307.145 432.781 304.744 434.412 303.47 431.836C302.742 430.376 297.012 400.888 296.339 396.394C295.739 392.357 296.867 385.973 296.194 380.963C294.484 368.08 290.7 355.598 290.882 342C295.539 339.309 304.616 330.663 309.873 330.405C326.228 329.604 345.238 351.905 361.064 356.085C376.891 360.265 401.959 363.872 417.312 364.874C432.666 365.876 442.817 355.799 454.623 340.626C468.903 322.246 478.417 292.158 494.135 276.841C499.338 271.774 507.069 275.295 507.36 259.006L507.324 259.034ZM674.685 568.222C668.264 570.283 662.115 577.039 663.789 588.233L669.173 586.057L674.685 568.222Z" fill="#FFCC6D"/>
<path d="M99.8348 382.137C110.622 389.695 123.793 410.135 136.072 397.539C137.4 396.165 138.001 392.386 139.456 390.754C152.226 376.44 186.172 346.866 200.761 347.811C209.675 348.412 219.717 354.768 228.976 353.537C229.431 357.459 225.72 357.888 223.973 358.461C219.153 360.064 209.038 359.32 205.364 363.557C202.562 366.763 198.924 392.386 198.051 399.285L194.449 362.097C193.867 375.409 194.467 388.979 194.43 402.148C194.412 409.906 194.449 417.951 194.521 426.368C194.649 442.6 192.448 493.616 196.159 503.922C197.196 506.814 201.725 513.198 204.236 513.656C207.547 512.568 229.977 455.425 233.197 445.978C244.475 439.079 255.208 429.774 266.232 422.102C277.256 414.43 288.826 414.573 296.303 396.422C296.976 400.917 302.706 430.404 303.434 431.864C304.707 434.441 307.108 432.838 308.455 434.441C309.492 435.7 308.855 439.165 309.037 439.336C297.34 453.965 268.47 459.72 258.21 472.431C256.372 474.692 235.361 532.436 234.816 536.015C234.233 539.879 239.145 609.275 240.364 614.714C240.819 616.718 253.407 649.956 254.517 651.187C260.302 657.628 266.778 623.016 267.779 620.583C269.07 617.462 283.096 587.66 284.114 586.2C286.097 583.366 290.409 583.309 291.809 579.702C294.92 571.771 291.027 529.544 296.212 515.059C296.667 513.799 307.691 494.303 308.491 493.559C315.422 487.089 330.557 489.579 339.035 485.085C342.909 483.023 344.383 478.729 347.275 476.553C354.152 471.429 352.987 478.328 354.552 479.416C347.73 509.218 326.464 489.608 314.549 509.505C304.744 525.851 313.184 542.857 314.549 562.467C331.722 552.848 349.022 541.712 365.539 529.602C368.104 527.712 369.523 526.453 370.924 522.387C380.802 526.768 394.046 527.283 405.506 532.379C419.059 538.419 435.74 548.754 449.147 556.742C453.786 559.518 458.935 560.95 463.664 563.956C470.613 568.336 497.882 593.1 502.576 590.895C507.851 588.405 509.834 558.23 502.503 554.365C491.952 548.811 465.265 557.515 452.768 553.907C462.627 544.26 475.671 538.963 486.949 534.698C518.603 522.702 551.838 517.177 583.51 504.867C584.601 491.784 586.147 475.694 589.022 463.413C589.95 459.462 588.385 458.517 592.824 459.433C591.168 468.308 597.59 466.762 596.48 474.836C594.297 490.753 585.729 509.39 581.436 524.334C570.139 529.201 562.244 549.928 552.311 557.371C543.834 563.727 519.13 567.191 514.6 572.459C507.961 580.16 518.694 590.437 518.257 596.85C518.221 597.365 514.291 600.371 516.456 605.41C516.947 606.526 531.027 615.802 532.337 616.26C536.303 617.663 540.705 615.831 543.725 616.918C554.076 620.554 564.809 627.826 574.651 634.096C563.772 635.412 550.056 642.197 539.122 642.713C524.224 643.457 492.625 618.178 476.398 609.79C454.35 598.425 431.32 587.775 409.49 577.669C391.462 569.338 391.572 564.901 373.325 576.323C366.613 580.532 324.427 611.05 321.716 615.344C319.169 619.381 288.862 706.497 286.807 715.085C286.097 718.034 285.079 720.639 285.479 723.989C292.883 746.892 295.175 773.001 301.433 796.39C308.345 822.213 320.188 849.095 327.574 875.491C342.273 928.081 359.846 1028.34 358.172 1084.94C357.735 1099.85 353.679 1121.92 354.661 1136.15C355.771 1152.04 370.415 1177.01 370.56 1196.22C369.996 1200.88 337.452 1237.33 333.468 1238.1C328.302 1239.1 323.99 1235.09 319.078 1235.04C314.694 1234.98 310.456 1238.67 306.272 1238.47C302.87 1238.3 304.562 1232.92 301.014 1232.2C289.317 1229.85 273.4 1232 261.157 1229.71C259.192 1228.99 250.824 1187.77 251.661 1180.96C252.789 1171.88 268.997 1125.1 273.054 1114.17C276.838 1103.95 301.633 1050.15 301.451 1045.4C295.848 1020.61 286.698 994.07 282.987 968.59C279.276 943.111 279.239 913.452 275.874 888.173C269.398 839.705 251.061 793.413 250.024 739.906C241.765 709.274 203.144 647.751 198.56 620.497C195.249 600.887 200.616 569.453 197.341 547.981C195.049 532.894 181.042 518.036 180.077 506.527L181.733 399.342C172.182 400.316 161.195 391.813 151.899 393.703C142.13 395.678 128.923 414.802 117.317 413.657C116.244 413.542 116.589 408.79 114.952 408.017C112.096 406.671 109.749 409.334 106.256 405.039C102.454 400.373 101.69 387.691 99.8894 382.137H99.8348Z" fill="#FFCC6D"/>
<path d="M489.132 256.172C495.372 255.37 501.284 257.259 507.324 259.034C507.033 275.353 499.32 271.803 494.099 276.87C478.381 292.186 468.867 322.275 454.587 340.654C442.781 355.827 432.666 365.904 417.276 364.902C401.886 363.9 376.109 360.093 361.028 356.113C345.22 351.934 326.191 329.632 309.837 330.434C304.562 330.691 295.502 339.366 290.845 342.028C267.724 355.34 244.657 369.111 219.899 373.52C223.81 367.651 229.795 361.954 232.232 354.281C236.635 340.339 238.818 314.831 239.927 299.086C255.135 304.038 270.671 304.697 286.006 308.161C299.159 311.138 336.542 326.569 346.166 324.794C355.789 323.019 377.564 302.721 388.679 296.996C410.291 285.917 468.685 258.805 489.151 256.143L489.132 256.172Z" fill="#FFCC6D"/>
<path d="M1.60083 207.503L65.9623 230.12C68.3817 233.155 66.8718 252.679 67.0901 259.035C54.247 253.194 30.598 254.368 19.8833 243.146C17.0818 240.197 2.78328 212.742 1.60083 207.503Z" fill="#FFCC6D"/>
<path d="M68.9093 284.8C74.8761 287.176 74.4941 268.11 77.2774 267.394C81.4432 266.306 95.6326 279.876 92.54 284.8L81.6433 281.937C81.9526 288.436 81.1704 295.65 81.6433 301.977C66.2533 302.063 70.6375 300.288 68.9093 284.8Z" fill="#FFCC6D"/>
<path d="M176.239 311.282L240.801 276.87C242.474 276.842 242.674 291.9 239.927 295.536C238.472 297.454 209.875 311.282 208.092 311.282H176.257H176.239Z" fill="#FFCC6D"/>
</g>
<defs>
<clipPath id="clip0_675_17">
<rect width="681.78" height="1237.98" fill="white" transform="translate(0 0.462402)"/>
</clipPath>
</defs>
</svg>
