<svg width="62" height="62" viewBox="0 0 62 62" fill="none" xmlns="http://www.w3.org/2000/svg">
<path d="M54.6667 0C56.479 0 58.2171 0.719938 59.4986 2.00144C60.7801 3.28294 61.5 5.02102 61.5 6.83333V54.6667C61.5 56.479 60.7801 58.2171 59.4986 59.4986C58.2171 60.7801 56.479 61.5 54.6667 61.5H6.83333C5.02102 61.5 3.28294 60.7801 2.00144 59.4986C0.719938 58.2171 0 56.479 0 54.6667V6.83333C0 5.02102 0.719938 3.28294 2.00144 2.00144C3.28294 0.719938 5.02102 0 6.83333 0H54.6667ZM52.9583 52.9583V34.85C52.9583 31.8959 51.7848 29.0629 49.696 26.974C47.6071 24.8852 44.7741 23.7117 41.82 23.7117C38.9158 23.7117 35.5333 25.4883 33.8933 28.1533V24.3608H24.3608V52.9583H33.8933V36.1142C33.8933 33.4833 36.0117 31.3308 38.6425 31.3308C39.9111 31.3308 41.1278 31.8348 42.0248 32.7318C42.9219 33.6289 43.4258 34.8455 43.4258 36.1142V52.9583H52.9583ZM13.2567 18.9967C14.779 18.9967 16.239 18.3919 17.3155 17.3155C18.3919 16.239 18.9967 14.779 18.9967 13.2567C18.9967 10.0792 16.4342 7.4825 13.2567 7.4825C11.7253 7.4825 10.2566 8.09085 9.17371 9.17371C8.09085 10.2566 7.4825 11.7253 7.4825 13.2567C7.4825 16.4342 10.0792 18.9967 13.2567 18.9967ZM18.0058 52.9583V24.3608H8.54167V52.9583H18.0058Z" fill="#AD3535"/>
</svg>
