<svg width="37" height="37" viewBox="0 0 37 37" fill="none" xmlns="http://www.w3.org/2000/svg">
<path d="M6.16671 30.8332C5.31879 30.8332 4.59318 30.5315 3.98987 29.9282C3.38657 29.3249 3.0844 28.5988 3.08337 27.7498V9.24984C3.08337 8.40192 3.38554 7.67631 3.98987 7.073C4.59421 6.4697 5.31982 6.16753 6.16671 6.1665H30.8334C31.6813 6.1665 32.4074 6.46867 33.0117 7.073C33.6161 7.67734 33.9177 8.40295 33.9167 9.24984V27.7498C33.9167 28.5978 33.6151 29.3239 33.0117 29.9282C32.4084 30.5325 31.6823 30.8342 30.8334 30.8332H6.16671ZM18.5 19.7717C18.6285 19.7717 18.7637 19.7522 18.9055 19.7131C19.0473 19.6741 19.182 19.6165 19.3094 19.5405L30.2167 12.7186C30.4223 12.5901 30.5764 12.4298 30.6792 12.2376C30.782 12.0454 30.8334 11.8332 30.8334 11.6009C30.8334 11.087 30.615 10.7016 30.1782 10.4446C29.7414 10.1877 29.2917 10.2005 28.8292 10.4832L18.5 16.9582L8.17087 10.4832C7.70837 10.2005 7.25872 10.1944 6.82192 10.4647C6.38511 10.735 6.16671 11.1137 6.16671 11.6009C6.16671 11.8578 6.2181 12.0829 6.32087 12.2761C6.42365 12.4694 6.57782 12.6168 6.78337 12.7186L17.6907 19.5405C17.8191 19.6175 17.9543 19.6756 18.0961 19.7147C18.238 19.7537 18.3726 19.7727 18.5 19.7717Z" fill="#AD3535"/>
</svg>
