<?xml version="1.0" encoding="UTF-8"?>
<svg id="Layer_5" data-name="Layer 5" xmlns="http://www.w3.org/2000/svg" xmlns:xlink="http://www.w3.org/1999/xlink" viewBox="0 0 425.2 425.2">
  <defs>
    <style>
      .cls-1 {
        fill: #ed812f;
      }

      .cls-2 {
        fill: #e69c4c;
      }

      .cls-3 {
        fill: #f8d245;
      }

      .cls-4 {
        fill: #f19a37;
      }

      .cls-5 {
        clip-path: url(#clippath);
      }
    </style>
    <clipPath id="clippath">
      <path class="cls-4" d="M138.7,105.07c-6.09,6.66-15.04,18.16-20.6,34.51-7.3,21.46-4.75,39.51-2.72,52.97,1.25,8.27,5.54,30.87,21.4,54.95,6.05,9.18,12.19,16.17,16.9,21.01,1.35,4.23,3.9,10.34,8.83,16.55,7.3,9.2,15.98,13.8,20.72,15.89-1.89-1.37-7.97-6.15-9.85-14.57-.98-4.39-.45-8.13.08-10.41,3.72,1.51,23.07,8.97,43.81,0,3.88-1.68,23.22-10.59,28.53-30.46.86-3.23,3.99-14.92-2.38-25.82-5.37-9.21-16.79-16.71-22.75-13.9-3.01,1.42-2.02,4.23-6.81,14.07-3.5,7.18-6.32,12.82-12.11,16-4.52,2.48-9.2,2.57-11.99,2.37-2.64,7.19-5.28,14.38-7.92,21.57-3.12-9.2-4.44-16.65-4.53-20.52-.06-2.82.21-5.41.21-5.41.23-2.16.6-3.96.92-5.3-1.01-1.65-2.25-4.25-2.38-7.5-.25-6.58,4.26-11.46,8.49-15.89,2-2.09,6.3-6.3,18.23-13.35,12.32-7.29,13.86-6.43,18-10.04,4.4-3.85,9.63-10.91,11.21-24.94,2.64,3.54,3.71,6.8,4.19,8.83,1.77,7.42-.68,13.65-2.04,17.1-2.11,5.37-5.02,8.09-4.64,8.39.52.41,6.42-4.33,10.19-11.03,4.25-7.55,4.38-15.07,4.08-19.31,1.52,1.4,3.82,3.86,5.55,7.5.56,1.19,2.53,5.59,2.26,11.59-.26,5.79-2.46,10.05-3.74,12.14,4.51,2.07,11.34,5.92,17.24,12.9,6.49,7.68,8.59,15.28,10.95,24.18,2.13,8.02,4.37,20.09,3.62,35.2,2.79-.9,7.19-2.72,11.58-6.43,5.37-4.54,8.07-9.66,9.32-12.52,2.34,1.26,3.96,2.73,5.11,4.09,9.06,10.71.89,28.93.44,29.92,2.03-2.53,20.45-26.16,11.61-46.63-1.07-2.47-2.66-5.2-5.09-7.94,2.11-4.32,4.19-9.64,5.6-15.89,3.52-15.58,1.06-28.86-1.1-36.62,2.31,3.38,5.22,8.13,7.92,14.12,4.5,9.99,6.07,18.26,7.18,24.28,1.26,6.85,2.38,16.15,2.01,27.25,3.03-5.01,6.25-11.62,8.36-19.74,5.57-21.44-.11-39.75-3.2-47.79,1.88,1.73,4.28,4.31,6.36,7.88,2.86,4.91,3.85,9.51,4.23,12.42,9.43-8.61,22.95-11.43,34.98-7.28,17.74,6.13,21.87,23.87,22.07,24.83-7.25-12-19.99-18.79-32.26-17.21-9.34,1.2-15.49,6.87-17.81,9.28.49-.24,11.17-5.19,20.87.99,7.8,4.97,9.01,13.33,9.17,14.57-1-1.23-6.86-8.25-15.96-8.28-4.42-.01-11.87,1.62-13.23,6.28-1.43,4.9,4.73,10.15,6.43,11.6,9.73,8.3,23.56,6.7,28.19,5.96-5.05,2.2-13.99,5.32-25.47,5.3-8.88-.02-16.06-1.91-20.77-3.55-.72,5.2-2.12,12.69-5.07,21.33-17.41,50.9-69.22,74.43-69.22,74.43-7.07,3.2-17.92,7.33-32.09,9.74-.84-14.27-13.18-24.95-26.47-24.02-12.11.85-22.27,11.14-22.94,24.07-8.39-1.39-19.93-4.17-32.65-10.13-4.52-2.12-16.87-8.34-30.3-19.97-21.84-18.91-32.14-40.83-39.85-56.94-2.79-5.84-4.87-10.81-6.25-14.3-2.14,3.05-5.73,6.96-11.21,8.94-10.73,3.87-24.55-1.15-33.96-12.91,2.33.97,20.63,8.38,30.9,0,.92-.75,4.9-4,4.41-7.61-.72-5.3-10.59-8.05-16.3-8.61-7.17-.7-12.94,1.53-15.96,2.98,1.35-2.23,3.87-5.7,8.15-8.61,7.13-4.85,14.54-5.04,17.32-4.97-3.02-2.19-8.75-5.65-16.64-6.62-16.22-1.99-27.99,8.23-29.89,9.93.49-.83,12.08-19.85,33.62-19.86,14.38,0,23.97,8.46,26.25,10.58,2.01-14.34,4.01-28.68,6.02-43.03-1.82,12.77-4.84,46.82,15.31,80.84,9.17,15.48,20.32,26.2,28.98,33.1-6.63-8-14.22-18.69-20.86-32.18-4.84-9.84-8.12-19.03-10.39-26.97,2.09-2.95,4.2-6.53,5.97-10.77,5.65-13.58,4.47-26.15,3.23-32.96-.28,2.56-1.38,9.26-6.96,14.53-1.86,1.76-3.79,2.94-5.43,3.75.64-6.58,1.88-16.19,4.48-26.63.98-3.93,2.47-9.84,5.41-17.18.94-2.35,1.21-2.81,2.2-5.23,1.83-4.46,3.97-10.36,5.85-17.6.75,1.4,1.5,3.09,2.12,5.05,1.18,3.74,1.41,7.07,1.36,9.52,1.64-2.83,3.58-6.98,4.5-12.25.44-2.52.57-4.82.54-6.8,2.25-1.06,4.59-2.24,6.99-3.57,4.25-2.36,8.03-4.81,11.35-7.19Z"/>
    </clipPath>
  </defs>
  <path class="cls-3" d="M194.77,82.13c-3.31,1.15-6.85,2.52-10.56,4.18-3.56,1.59-6.82,3.23-9.78,4.86.15,1.32.45,5.48-2.21,9.6-3.59,5.56-9.71,6.61-10.69,6.76,3.84-4.47,4.91-10.45,2.7-15.43-2.21-4.97-6.83-6.99-7.98-7.45-.01,4.84-.71,11.56-3.82,18.82-1.01,2.35-2.13,4.43-3.26,6.26-4.46,3.98-10.87,10.68-16.03,20.5-5.71,10.87-7.38,20.81-7.92,26.92,1.96-.9,4.93-2.56,7.7-5.52,4.04-4.32,5.39-8.99,5.89-11.26.07,3.38-.26,11.54-5.89,19.2-2.32,3.16-4.91,5.37-7.03,6.87-1.12,7.21-1.96,18.35.69,31.53,2.85,14.14,8.53,24.71,12.62,31.07-.98-4.02-1.85-8.45-2.48-13.25-1.06-8.17-.97-14.14-.85-22.18.17-11.4,1.01-15,1.36-16.39,1.62-6.46,4.03-10.36,4.93-11.75,1.99-3.05,4.11-5.27,5.72-6.75-.82-.72-4.33-3.94-4.78-9.28-.36-4.19,1.36-7.29,2.04-8.39.1,1.04.37,2.64,1.25,4.41.96,1.95,2.23,3.25,3.06,3.97,2.35-5.49,5.9-12.82,11.09-20.97,4.33-6.79,8.59-13.46,16.2-20.66,3.55-3.36,10.46-9.78,21.23-14.73,10.16-4.67,18.7-5.69,27.37-6.66,9.99-1.11,25.05-1.73,43.47,1.65-5.69-3.22-12.03-6.47-19.02-9.59-5.43-2.43-10.66-4.5-15.62-6.29.9-4.15,4.39-22.51-7.13-39.39-5.68-8.32-12.82-13.08-17.32-15.56,3.95,3.86,10.57,11.5,13.58,22.84.98,3.67,2.6,10.06,1.02,18.17-1.17,6.01-3.63,10.53-5.43,13.28.08-2.69-.13-7.69-2.72-13.24-2.2-4.72-5.19-7.86-7.13-9.6,3.35,8.17,1.24,16-3.74,18.87-2.67,1.54-6.46,1.86-9.18.35-5.51-3.07-6.99-13.83-2.03-26.5-8.78,5.87-13.2,15.85-11.21,25.16,2.1,9.81,10.41,14.72,11.89,15.56Z"/>
  <path class="cls-3" d="M248,146.67c-.46-1.22-3.62-10,1.53-18.62,4.05-6.78,11.74-10.96,19.87-10.68,10.8.38,16.74,8.46,17.32,9.27.54.76,5.93,8.64,3.06,18.21-2,6.67-6.86,10.29-8.66,11.59-4.9,3.54-9.88,4.39-12.23,4.63,2.58.6,7.15,1.31,12.57.17,8.86-1.87,14.08-7.47,16.3-9.93,1.87-2.06,6.35-7.15,7.81-15.23.31-1.72,1.4-8.63-1.87-16.55-.54-1.31-2.76-6.43-7.98-11.26-2.11-1.95-7.54-6.84-16.3-8.44-11.44-2.1-20.25,2.92-22.13,4.06-6.54,3.93-9.95,9.25-11.49,12.17-.98,1.87-6.58,12.96-1.7,24.33,1.2,2.8,2.73,4.9,3.91,6.29Z"/>
  <g>
    <path class="cls-4" d="M138.7,105.07c-6.09,6.66-15.04,18.16-20.6,34.51-7.3,21.46-4.75,39.51-2.72,52.97,1.25,8.27,5.54,30.87,21.4,54.95,6.05,9.18,12.19,16.17,16.9,21.01,1.35,4.23,3.9,10.34,8.83,16.55,7.3,9.2,15.98,13.8,20.72,15.89-1.89-1.37-7.97-6.15-9.85-14.57-.98-4.39-.45-8.13.08-10.41,3.72,1.51,23.07,8.97,43.81,0,3.88-1.68,23.22-10.59,28.53-30.46.86-3.23,3.99-14.92-2.38-25.82-5.37-9.21-16.79-16.71-22.75-13.9-3.01,1.42-2.02,4.23-6.81,14.07-3.5,7.18-6.32,12.82-12.11,16-4.52,2.48-9.2,2.57-11.99,2.37-2.64,7.19-5.28,14.38-7.92,21.57-3.12-9.2-4.44-16.65-4.53-20.52-.06-2.82.21-5.41.21-5.41.23-2.16.6-3.96.92-5.3-1.01-1.65-2.25-4.25-2.38-7.5-.25-6.58,4.26-11.46,8.49-15.89,2-2.09,6.3-6.3,18.23-13.35,12.32-7.29,13.86-6.43,18-10.04,4.4-3.85,9.63-10.91,11.21-24.94,2.64,3.54,3.71,6.8,4.19,8.83,1.77,7.42-.68,13.65-2.04,17.1-2.11,5.37-5.02,8.09-4.64,8.39.52.41,6.42-4.33,10.19-11.03,4.25-7.55,4.38-15.07,4.08-19.31,1.52,1.4,3.82,3.86,5.55,7.5.56,1.19,2.53,5.59,2.26,11.59-.26,5.79-2.46,10.05-3.74,12.14,4.51,2.07,11.34,5.92,17.24,12.9,6.49,7.68,8.59,15.28,10.95,24.18,2.13,8.02,4.37,20.09,3.62,35.2,2.79-.9,7.19-2.72,11.58-6.43,5.37-4.54,8.07-9.66,9.32-12.52,2.34,1.26,3.96,2.73,5.11,4.09,9.06,10.71.89,28.93.44,29.92,2.03-2.53,20.45-26.16,11.61-46.63-1.07-2.47-2.66-5.2-5.09-7.94,2.11-4.32,4.19-9.64,5.6-15.89,3.52-15.58,1.06-28.86-1.1-36.62,2.31,3.38,5.22,8.13,7.92,14.12,4.5,9.99,6.07,18.26,7.18,24.28,1.26,6.85,2.38,16.15,2.01,27.25,3.03-5.01,6.25-11.62,8.36-19.74,5.57-21.44-.11-39.75-3.2-47.79,1.88,1.73,4.28,4.31,6.36,7.88,2.86,4.91,3.85,9.51,4.23,12.42,9.43-8.61,22.95-11.43,34.98-7.28,17.74,6.13,21.87,23.87,22.07,24.83-7.25-12-19.99-18.79-32.26-17.21-9.34,1.2-15.49,6.87-17.81,9.28.49-.24,11.17-5.19,20.87.99,7.8,4.97,9.01,13.33,9.17,14.57-1-1.23-6.86-8.25-15.96-8.28-4.42-.01-11.87,1.62-13.23,6.28-1.43,4.9,4.73,10.15,6.43,11.6,9.73,8.3,23.56,6.7,28.19,5.96-5.05,2.2-13.99,5.32-25.47,5.3-8.88-.02-16.06-1.91-20.77-3.55-.72,5.2-2.12,12.69-5.07,21.33-17.41,50.9-69.22,74.43-69.22,74.43-7.07,3.2-17.92,7.33-32.09,9.74-.84-14.27-13.18-24.95-26.47-24.02-12.11.85-22.27,11.14-22.94,24.07-8.39-1.39-19.93-4.17-32.65-10.13-4.52-2.12-16.87-8.34-30.3-19.97-21.84-18.91-32.14-40.83-39.85-56.94-2.79-5.84-4.87-10.81-6.25-14.3-2.14,3.05-5.73,6.96-11.21,8.94-10.73,3.87-24.55-1.15-33.96-12.91,2.33.97,20.63,8.38,30.9,0,.92-.75,4.9-4,4.41-7.61-.72-5.3-10.59-8.05-16.3-8.61-7.17-.7-12.94,1.53-15.96,2.98,1.35-2.23,3.87-5.7,8.15-8.61,7.13-4.85,14.54-5.04,17.32-4.97-3.02-2.19-8.75-5.65-16.64-6.62-16.22-1.99-27.99,8.23-29.89,9.93.49-.83,12.08-19.85,33.62-19.86,14.38,0,23.97,8.46,26.25,10.58,2.01-14.34,4.01-28.68,6.02-43.03-1.82,12.77-4.84,46.82,15.31,80.84,9.17,15.48,20.32,26.2,28.98,33.1-6.63-8-14.22-18.69-20.86-32.18-4.84-9.84-8.12-19.03-10.39-26.97,2.09-2.95,4.2-6.53,5.97-10.77,5.65-13.58,4.47-26.15,3.23-32.96-.28,2.56-1.38,9.26-6.96,14.53-1.86,1.76-3.79,2.94-5.43,3.75.64-6.58,1.88-16.19,4.48-26.63.98-3.93,2.47-9.84,5.41-17.18.94-2.35,1.21-2.81,2.2-5.23,1.83-4.46,3.97-10.36,5.85-17.6.75,1.4,1.5,3.09,2.12,5.05,1.18,3.74,1.41,7.07,1.36,9.52,1.64-2.83,3.58-6.98,4.5-12.25.44-2.52.57-4.82.54-6.8,2.25-1.06,4.59-2.24,6.99-3.57,4.25-2.36,8.03-4.81,11.35-7.19Z"/>
    <g class="cls-5">
      <path class="cls-1" d="M259.19,227.59c7.05,14.52,6.35,31.59,3.57,47.49-6.87,39.25-25.69,76.32-53.34,105.02-6.32,6.56-13.45,12.9-22.24,15.29-9.69,2.63-19.94.11-29.65-2.41-31.59-8.19-63.89-16.7-90.84-35.09C29.58,332.56,6.07,289.7.37,245.13s5.48-90.4,27.23-129.71c6.51-11.77,14.57-23.58,26.73-29.33,13.22-6.26,25.65-3.04,38.93.49,7.04,1.87,14.2,3.43,21.08,5.89,3.4,1.21,6.73,2.62,9.9,4.34,5.37,2.91,4.76,2.15,10.14,1.2,5.51-.97,10.87,3.24,13.15,8.35,2.28,5.11,2.23,10.91,2.22,16.51-.07,37.14,3.48,74.28,10.58,110.74,2.39,12.28,6.47,26.13,17.86,31.31,12.45,5.66,27.64-2.92,34.07-14.99,4.15-7.78,5.58-16.58,6.08-25.29.32-5.49-.73-13.94,4.61-17.52,12.48-8.38,31.48,10.68,36.24,20.49Z"/>
    </g>
  </g>
  <path class="cls-3" d="M230.23,372.48c-12.35-6.86-14.12-21.85-14.36-24.47,5.63-.1,10.18-4.56,10.18-10.08s-4.64-10.1-10.36-10.1-10.36,4.52-10.36,10.1,4.64,10.1,10.36,10.1c.05,0,.1-.01.15-.01-.2,2.64-1.55,15.4-12.45,23.06-4.19,2.94-8.44,4.18-11.44,4.74,3.44.47,8.1,1.71,12.43,4.97,6.1,4.59,8.27,10.73,9.73,14.88,1.75,4.98,2.18,9.35,2.25,12.29-.07-2.83.14-7.15,1.71-12.12.99-3.13,2.55-7.87,6.76-12.29,5.18-5.46,11.47-7.37,14.59-8.08-2.76-.37-5.98-1.2-9.19-2.99Z"/>
  <path class="cls-2" d="M248,146.74c.27-.14-2.65-4.49-3.66-9.97-1.58-8.6,2.29-15.91,2.91-17.03,6.6-12.08,20.28-13.8,20.86-13.87,12.82-1.4,24.52,6.96,29.18,17.69,3.43,7.89,3.82,18.76-1.98,26.81-4.15,5.76-10.1,8.15-11.88,8.85-7.59,2.95-14.54,1.63-14.54,1.92,0,.26,5.74,1.61,12.57.17,8.86-1.87,14.08-7.47,16.3-9.93,1.87-2.06,6.35-7.15,7.81-15.23.31-1.72,1.4-8.63-1.87-16.55-.54-1.31-2.76-6.43-7.98-11.26-2.11-1.95-7.54-6.84-16.3-8.44-11.44-2.1-20.25,2.92-22.13,4.06-6.54,3.93-9.95,9.25-11.49,12.17-.98,1.87-6.58,12.96-1.7,24.33,1.51,3.51,3.68,6.41,3.91,6.29Z"/>
  <path class="cls-2" d="M220.76,381.44c-.41.7-.92,1.64-1.42,2.79-.18.42-.47,1.06-.57,1.32-.35.88-.69,1.66-.92,2.42-.7,2.24-.79,2.98-.92,3.74-.14.77-.22,1.56-.26,1.91-.08.71-.1,1.04-.2,2.18-.04.42-.09.92-.16,1.54-.48,4.62-.02,7.66.05,10.6-.07-2.83.14-7.15,1.71-12.12.99-3.13,2.55-7.87,6.76-12.29,5.18-5.46,11.47-7.37,14.59-8.08-2.76-.37-5.98-1.2-9.19-2.99-12.35-6.86-14.12-21.85-14.36-24.47,2.82-.05,5.36-1.19,7.2-3.01.6-.59,2.97-3.13,2.98-7.07,0-3.36-1.69-5.7-2.37-6.42-3.89-4.1-7.99-3.68-7.99-3.68,0,0,5.06,1.99,6.8,6.65,1.2,3.21.52,7.52-1.78,10.04-.43.52-.99,1.11-1.71,1.68-1.16.93-2.3,1.48-3.16,1.81,0,1.64.07,6.75,1.09,11.61.73,3.5,1.72,5.73,1.98,6.29.34.75.66,1.35.88,1.76.54.92,1.08,1.61,1.46,2.06.61.95,1.56,2.22,2.99,3.44,1.29,1.11,2.55,1.83,3.52,2.29-2.52.88-3.71,2.26-4.49,3.04-1.06,1.06-2.05,2.1-2.5,2.94Z"/>
</svg>