<svg width="72" height="59" viewBox="0 0 72 59" fill="none" xmlns="http://www.w3.org/2000/svg">
<path d="M71.4767 6.83333C68.8458 8.02917 66.01 8.815 63.0717 9.19083C66.0783 7.38 68.4017 4.51 69.495 1.05917C66.6592 2.7675 63.5158 3.96333 60.2017 4.64667C57.5025 1.70833 53.71 0 49.405 0C41.3758 0 34.8158 6.56 34.8158 14.6575C34.8158 15.8192 34.9525 16.9467 35.1917 18.0058C23.0283 17.3908 12.1975 11.5483 4.98833 2.69917C3.72417 4.85167 3.00667 7.38 3.00667 10.045C3.00667 15.1358 5.56917 19.6458 9.5325 22.2083C7.10667 22.2083 4.85167 21.525 2.87 20.5V20.6025C2.87 27.7092 7.92667 33.6542 14.6233 34.9867C12.4737 35.5775 10.216 35.6594 8.02917 35.2258C8.95716 38.1385 10.7746 40.6871 13.226 42.5133C15.6774 44.3396 18.6394 45.3518 21.6958 45.4075C16.515 49.5092 10.0929 51.7263 3.485 51.6942C2.32333 51.6942 1.16167 51.6258 0 51.4892C6.49167 55.6575 14.2133 58.0833 22.4817 58.0833C49.405 58.0833 64.1992 35.7383 64.1992 16.3658C64.1992 15.7167 64.1992 15.1017 64.165 14.4525C67.035 12.4025 69.495 9.80583 71.4767 6.83333Z" fill="#AD3535"/>
</svg>
