<svg width="160" height="348" viewBox="0 0 160 348" fill="none" xmlns="http://www.w3.org/2000/svg">
<path d="M34.6008 239.779C35.1251 218.319 39.7982 167.709 49.304 149.864C54.7066 139.733 66.1501 137.269 52.9741 125.595C42.944 116.707 26.8047 106.898 17.1621 96.2139C2.29928 79.7505 -2.89815 61.8365 1.52422 39.4325C11.3036 35.5182 16.7518 26.9526 25.5053 22.2093C41.4167 13.6437 61.8189 10.8806 78.5281 6.68997C83.3152 5.49263 99.9333 -2.10585 102.783 0.565133C103.353 1.11775 102.806 5.69987 105.245 8.34782C110.191 13.7358 128.018 15.8772 125.806 27.9427C93.8013 29.3933 111.172 56.2413 112.106 75.1914C112.631 85.9675 108.755 100.151 101.985 108.648C96.9471 114.957 84.3866 117.49 82.7453 123.983C80.8305 131.604 93.4593 136.67 96.172 140.769C96.6507 141.482 97.6309 145.696 98.4516 147.676C100.207 151.936 99.2266 158.015 103.011 161.492C103.011 166.097 103.011 170.702 103.011 175.307C103.011 192.392 101.096 211.987 105.29 228.266C105.222 229.763 105.176 231.375 105.29 232.871C105.701 238.582 109.507 240.746 109.849 242.082C110.305 243.878 109.667 246.802 109.849 248.989C110.055 251.476 109.074 254.769 112.129 255.897C111.855 257.325 112.471 259.236 112.129 260.502C110.921 264.946 107.912 269.943 107.524 273.512C106.954 278.462 109.758 280.235 109.849 281.225C110.009 282.722 109.644 284.357 109.849 285.831C110.191 288.248 108.96 291.587 112.129 292.738C112.015 294.235 112.334 295.87 112.129 297.343C111.627 301.12 112.972 305.426 111.673 309.478C110.556 312.955 106.407 314.221 105.336 319.241C102.099 334.392 108.026 329.879 111.24 332.642C127.151 346.48 133.01 341.115 150.882 331.859C151.383 332.32 154.506 331.698 156.489 334.162C159.02 337.293 159.544 343.901 160 347.977H87.0537C88.7634 341.484 88.4899 333.148 90.3363 327.047C91.6129 322.879 103.763 319.195 88.7406 312.909C63.5741 302.363 68.4296 332.734 73.3535 348H32.3212L34.6236 336.487C39.821 335.773 43.0808 342.635 47.4804 342.98C60.0864 343.994 69.3415 312.817 55.0941 306.531C55.6868 302.478 53.7264 294.88 52.8146 290.413C51.6292 284.564 50.2842 279.844 48.2098 274.295C43.172 272.245 43.2176 277.979 41.4167 278.9C40.8468 279.176 39.8438 278.647 39.1371 278.9C39.7982 272.568 38.8864 274.801 34.578 274.295C33.1419 266.765 37.0399 259.466 37.0399 252.397C37.0399 247.746 34.5096 242.865 34.578 239.756L34.6008 239.779ZM105.267 69.389C106.863 67.7541 106.111 52.9716 97.3346 55.5966C87.1677 58.636 98.8847 75.9052 105.267 69.389ZM73.3535 78.5992C73.2623 74.9612 74.4249 68.0535 71.2335 65.7739C59.5393 57.3465 51.2645 83.0662 73.3535 78.5992Z" fill="#FFCC6D"/>
</svg>
