<svg width="211" height="406" viewBox="0 0 211 406" fill="none" xmlns="http://www.w3.org/2000/svg">
<path d="M41.2513 87.9808C45.023 86.6624 47.4746 86.1143 51.0722 83.8182C60.0663 78.0557 70.8447 69.6563 77.7063 62.9161C80.5641 60.1015 99.6402 51.954 94.1132 45.8212C93.3298 44.9472 88.151 47.7173 89.21 43.3769C98.4216 38.3106 100.801 27.2449 105.675 21.0231C107.706 18.4308 112.145 17.6308 114.698 14.831C117.382 11.8979 119.761 4.10596 122.967 1.85429C124.954 0.461806 131.177 -0.604762 132.12 0.387752C132.527 0.817347 131.772 4.13558 132.498 5.69101C133.673 8.20933 136.153 8.10567 137.227 9.61666C140.201 13.8386 136.066 18.0456 135.602 22.3712C134.558 32 133.441 43.4066 135.979 52.5762C136.501 54.4724 138.735 55.8056 138.852 57.8943C138.895 58.8127 136.313 58.6054 135.558 59.983C132.686 65.2567 137.082 75.3596 135.428 81.9665C135.123 83.1664 132.57 82.8997 132.222 84.2329C129.77 93.7877 130.626 99.7428 124.446 108.053C123.634 109.149 124.229 111.594 123.692 112.038C122.459 113.075 118.702 111.505 117.469 112.542C114.147 115.371 110.694 130.94 108.634 135.518C107.575 137.858 105.051 137.784 104.079 139.503C100.177 146.48 104.195 155.25 104.05 162.597L133.063 154.568L203.855 152.746C206.641 163.634 213.067 175.574 210.34 186.625C204.668 209.704 195.819 205.586 180.877 217.807C165.935 230.029 167.661 239.035 145.35 246.961H143.697C139.258 248.516 134.833 250.323 130.467 251.834C121.226 255.034 111.144 256.827 101.932 260.337C97.5658 261.997 69.394 273.699 68.1029 274.988C66.3766 276.707 65.956 280.751 64.3022 283.091C46.3141 308.541 39.0173 340.257 23.9449 367.144C18.3454 377.143 8.24886 388.787 1.40175 398.578C-0.295517 401.008 -2.48601 402.371 -1.77519 406H-177V74.9596C-158.635 70.4266 -172.039 82.959 -170.051 89.9658C-169.5 91.8916 -167.165 93.8026 -166.28 96.0839C-165.003 99.3725 -161.217 113.357 -160.448 113.905C-159.026 114.912 -152.905 111.505 -152.223 112.29C-158.127 131.933 -142.678 145.71 -137.716 163.782C-136.788 167.174 -137.948 171.026 -136.976 174.418C-135.845 178.359 -127.75 183.795 -127.431 184.892C-126.503 188.017 -124.95 196.905 -124.24 200.846C-123.645 204.09 -124.965 211.038 -123.891 212.682C-122.31 215.126 -114.042 210.623 -118.597 224C-120.468 229.495 -125.618 232.651 -131.029 234.502C-139.21 237.287 -152.658 234.177 -152.194 243.717C-133.132 244.813 -118.219 231.525 -102.074 223.97C-92.2382 219.363 -78.4134 213.378 -67.8961 211.275C-63.6747 210.43 -57.582 210.371 -53.0124 209.645C-47.4709 208.771 -26.4074 208.045 -23.9267 204.831C-22.8968 203.498 -24.6956 200.342 -24.1733 198.224C-23.0273 193.632 -19.9374 189.928 -18.7624 185.662C-16.9781 179.159 -17.6164 169.53 -15.5564 164.582C-14.3669 161.708 -5.73552 158.746 -5.25681 153.442L-22.7952 160.582C-27.6839 161.012 -33.298 161.397 -38.1286 160.953C-45.5705 160.257 -43.4671 159.042 -47.0212 156.716C-48.5734 155.694 -51.0685 155.59 -52.2 154.538C-54.2019 152.687 -61.2231 142.939 -55.464 143.043C-50.2707 143.132 -45.7301 144.88 -39.7969 144.732C-36.4169 144.643 -31.0205 142.525 -27.0166 142.584C-11.8138 126.793 -6.43184 103.283 17.9392 98.3652C24.1045 90.351 32.6779 90.9287 41.1933 87.9364L41.2513 87.9808ZM92.2709 165.649C93.0253 164.508 92.6916 150.198 92.4739 147.221L89.1955 133.414C91.241 141.488 83.9006 137.073 82.5515 138.258C81.3765 139.295 82.5805 164.656 80.9268 169.1C81.3185 169.545 91.9373 166.123 92.2564 165.634L92.2709 165.649ZM59.4426 139.903C58.3691 139.903 57.194 140.021 56.135 139.903C55.5838 139.843 53.4078 137.236 51.1883 138.288C47.6197 157.383 43.935 167.797 26.3965 178.048C33.9545 177.811 43.9205 178.107 51.1883 177.233C53.9446 176.907 68.5962 174.641 69.1474 173.767C71.2509 170.419 67.7838 164.878 67.7258 162.627C67.7258 162.093 67.7258 161.545 67.7258 160.997C67.7258 160.449 67.7258 159.916 67.7258 159.368C67.7258 159.249 69.365 158.805 69.3795 157.738C69.394 156.672 69.3505 155.575 69.3795 154.494C69.4085 153.413 69.336 152.331 69.3795 151.25C69.4521 149.117 69.4956 146.88 69.3795 144.761C69.2345 142.08 69.4956 139.34 69.3795 136.658C68.7412 135.962 61.5895 139.873 59.4715 139.903H59.4426ZM18.1134 161.012C-1.36897 166.404 -7.73737 184.077 -11.6396 201.572C-8.08553 205.068 10.6569 192.921 12.3397 190.21C15.0959 185.81 10.4539 179.692 11.3968 174.863C11.7305 173.144 15.2555 174.863 16.6191 173.041C17.8377 171.426 18.8532 161.856 18.0988 161.012H18.1134Z" fill="#3A0F69"/>
</svg>
